<?xml version="1.0" encoding="UTF-8"?>
<svg width="100px" height="100px" viewBox="0 0 100 100" version="1.1" xmlns="http://www.w3.org/2000/svg" xmlns:xlink="http://www.w3.org/1999/xlink">
    <!-- Generator: sketchtool 51.3 (57544) - http://www.bohemiancoding.com/sketch -->
    <title>F63334EF-D2A5-4074-9545-0E6CBD030863</title>
    <desc>Created with sketchtool.</desc>
    <defs></defs>
    <g id="Symbols" stroke="none" stroke-width="1" fill="none" fill-rule="evenodd">
        <g id="Icon/Arrow-Right-Copy">
            <g id="Group-5" transform="translate(9.000000, 9.000000)"></g>
            <g id="Group-5-Copy" transform="translate(50.000000, 50.000000) scale(-1, 1) translate(-50.000000, -50.000000) translate(9.000000, 9.000000)" fill="#111111">
                <path d="M41.0775,35.0355 L74.9415,1.1715 C76.5035,-0.3905 79.0365,-0.3905 80.5985,1.1715 C82.1605,2.7335 82.1605,5.2665 80.5985,6.8285 L46.6565,40.7705 L80.5985,74.7115 C82.1605,76.2735 82.1605,78.8065 80.5985,80.3685 C79.0365,81.9305 76.5035,81.9305 74.9415,80.3685 L41.3074,46.7344 L7.4434,80.5984 C5.8814,82.1604 3.3484,82.1604 1.7864,80.5984 C0.2244,79.0364 0.2244,76.5034 1.7864,74.9414 L35.7284,41.0004 L1.7864,7.0584 C0.2244,5.4964 0.2244,2.9634 1.7864,1.4014 C3.3484,-0.1606 5.8814,-0.1606 7.4434,1.4014 L41.0775,35.0355 Z" id="Combined-Shape"></path>
            </g>
        </g>
    </g>
</svg>