<svg xmlns="http://www.w3.org/2000/svg" xmlns:xlink="http://www.w3.org/1999/xlink" width="100" height="100" viewBox="0 0 100 100">
    <defs>
        <path id="a" d="M0 0h82v77H0z"/>
    </defs>
    <g fill="none" fill-rule="evenodd" transform="translate(9 11)">
        <mask id="b" fill="#fff">
            <use xlink:href="#a"/>
        </mask>
        <path fill="#000" d="M72.105 71.416H9.922c-2.46 0-4.455-2.038-4.455-4.553V30.405h71.066v36.458c0 2.504-1.979 4.537-4.428 4.553M9.922 9.997h6.232v1.338c0 1.543 1.225 2.791 2.733 2.791 1.512 0 2.734-1.248 2.734-2.791V9.997h38.758v1.592c0 1.54 1.225 2.791 2.734 2.791 1.511 0 2.733-1.25 2.733-2.791V9.997h6.26c2.44.014 4.41 2.03 4.427 4.523v10.302H5.467V14.52c.013-2.504 2.006-4.523 4.455-4.523m62.183-5.583h-6.259V3.046c0-1.541-1.222-2.792-2.733-2.792-1.51 0-2.734 1.25-2.734 2.792v1.368H21.621V2.792C21.62 1.25 20.399 0 18.887 0c-1.508 0-2.733 1.25-2.733 2.792v1.622H9.922C4.452 4.414.014 8.934 0 14.52v52.343C0 72.461 4.442 77 9.922 77h62.183C77.575 76.983 82 72.45 82 66.863V14.52c-.016-5.575-4.436-10.092-9.895-10.106" mask="url(#b)"/>
    </g>
</svg>
