<?xml version="1.0" encoding="UTF-8"?>
<svg width="100px" height="100px" viewBox="0 0 100 100" version="1.1" xmlns="http://www.w3.org/2000/svg" xmlns:xlink="http://www.w3.org/1999/xlink">
    <!-- Generator: sketchtool 51.3 (57544) - http://www.bohemiancoding.com/sketch -->
    <title>EC355BA5-81B5-480C-B85F-DF193347A142</title>
    <desc>Created with sketchtool.</desc>
    <defs></defs>
    <g id="Symbols" stroke="none" stroke-width="1" fill="none" fill-rule="evenodd">
        <g id="Icon/Cart" fill="#111111">
            <path d="M86.2495,31.1816 L82.4845,47.3186 C81.6345,50.9576 78.4315,53.4996 74.6935,53.4996 L31.9205,53.4996 L28.0065,27.4996 L83.3275,27.4996 C84.2485,27.4996 85.1055,27.9136 85.6775,28.6346 C86.2505,29.3566 86.4585,30.2846 86.2495,31.1816 M88.8115,26.1486 C87.4755,24.4656 85.4765,23.4996 83.3275,23.4996 L27.4035,23.4996 L27.0395,21.0766 C26.6655,18.5936 24.9785,16.4916 22.6375,15.5876 L12.3905,11.6336 C11.3605,11.2386 10.2015,11.7496 9.8045,12.7806 C9.4065,13.8106 9.9195,14.9676 10.9505,15.3666 L21.1975,19.3206 C22.2005,19.7066 22.9235,20.6086 23.0835,21.6716 L23.3585,23.4996 L28.4775,57.4996 L29.0105,61.0416 C29.5305,64.4946 32.4415,66.9996 35.9325,66.9996 L81.8365,66.9996 C82.9415,66.9996 83.8365,66.1046 83.8365,64.9996 C83.8365,63.8956 82.9415,62.9996 81.8365,62.9996 L35.9325,62.9996 C34.4365,62.9996 33.1885,61.9256 32.9655,60.4466 L32.5215,57.4996 L74.6935,57.4996 C80.2995,57.4996 85.1055,53.6866 86.3795,48.2266 L90.1455,32.0896 C90.6335,29.9966 90.1465,27.8316 88.8115,26.1486 M39.1705,84.4996 C36.9645,84.4996 35.1705,82.7046 35.1705,80.4996 C35.1705,78.2936 36.9645,76.4996 39.1705,76.4996 C41.3755,76.4996 43.1705,78.2936 43.1705,80.4996 C43.1705,82.7046 41.3755,84.4996 39.1705,84.4996 M39.1705,72.4996 C34.7515,72.4996 31.1705,76.0816 31.1705,80.4996 C31.1705,84.9176 34.7515,88.4996 39.1705,88.4996 C43.5885,88.4996 47.1705,84.9176 47.1705,80.4996 C47.1705,76.0816 43.5885,72.4996 39.1705,72.4996 M74.1705,84.4996 C71.9645,84.4996 70.1705,82.7046 70.1705,80.4996 C70.1705,78.2936 71.9645,76.4996 74.1705,76.4996 C76.3755,76.4996 78.1705,78.2936 78.1705,80.4996 C78.1705,82.7046 76.3755,84.4996 74.1705,84.4996 M74.1705,72.4996 C69.7515,72.4996 66.1705,76.0816 66.1705,80.4996 C66.1705,84.9176 69.7515,88.4996 74.1705,88.4996 C78.5885,88.4996 82.1705,84.9176 82.1705,80.4996 C82.1705,76.0816 78.5885,72.4996 74.1705,72.4996" id="Fill-3"></path>
        </g>
    </g>
</svg>