<?xml version="1.0" encoding="UTF-8"?>
<svg width="40px" height="40px" viewBox="0 0 40 40" version="1.1" xmlns="http://www.w3.org/2000/svg" xmlns:xlink="http://www.w3.org/1999/xlink">
    <!-- Generator: sketchtool 51.3 (57544) - http://www.bohemiancoding.com/sketch -->
    <title>AAE0B215-E953-449A-A809-84C9838CD692</title>
    <desc>Created with sketchtool.</desc>
    <defs></defs>
    <g id="Symbols" stroke="none" stroke-width="1" fill="none" fill-rule="evenodd">
        <g id="Icon/Menu/Burger-Copy" fill="#FFC12F" fill-rule="nonzero">
            <path d="M18.5,18.5 L18.5,8 C18.5,7.17157288 19.1715729,6.5 20,6.5 C20.8284271,6.5 21.5,7.17157288 21.5,8 L21.5,18.5 L32.5,18.5 C33.3284271,18.5 34,19.1715729 34,20 C34,20.8284271 33.3284271,21.5 32.5,21.5 L21.5,21.5 L21.5,33 C21.5,33.8284271 20.8284271,34.5 20,34.5 C19.1715729,34.5 18.5,33.8284271 18.5,33 L18.5,21.5 L7.5,21.5 C6.67157288,21.5 6,20.8284271 6,20 C6,19.1715729 6.67157288,18.5 7.5,18.5 L18.5,18.5 Z" id="Combined-Shape" transform="translate(20.000000, 20.500000) rotate(45.000000) translate(-20.000000, -20.500000) "></path>
        </g>
    </g>
</svg>