<?xml version="1.0" encoding="UTF-8"?>
<svg width="200px" height="200px" viewBox="0 0 200 200" version="1.1" xmlns="http://www.w3.org/2000/svg" xmlns:xlink="http://www.w3.org/1999/xlink">
    <!-- Generator: sketchtool 51.3 (57544) - http://www.bohemiancoding.com/sketch -->
    <title>292CEB10-DA9A-4BC1-99FC-9DDE067876D4</title>
    <desc>Created with sketchtool.</desc>
    <defs></defs>
    <g id="Symbols" stroke="none" stroke-width="1" fill="none" fill-rule="evenodd">
        <g id="Icon/Gift">
            <g id="Icon_Gift" transform="translate(20.000000, 20.000000)">
                <path d="M21.5311847,13.7917641 L162.876666,29.111765 C168.367356,29.706884 172.336001,34.640407 171.740882,40.1310971 C171.553508,41.8598446 170.918588,43.5098549 169.898784,44.9182851 L82.741072,165.289946 C79.5020622,169.763274 73.2499774,170.763886 68.7766498,167.524876 C67.2433106,166.414629 66.0566144,164.891945 65.3545325,163.133861 L11.1667631,27.4421993 C9.11852605,22.3132063 11.6159722,16.4949117 16.7449652,14.4466747 C18.2628757,13.8405049 19.906231,13.6156404 21.5311847,13.7917641 Z" id="Path-8" fill="#FFF6CE" fill-rule="nonzero"></path>
                <circle id="Oval-2-Copy-2" stroke="#FFF6CE" stroke-width="3" fill="#FFFFFF" fill-rule="nonzero" cx="80" cy="80" r="80"></circle>
                <circle id="Oval-6" fill-opacity="0.5" fill="#FFC12F" fill-rule="nonzero" cx="60" cy="45" r="4"></circle>
                <circle id="Oval-6-Copy" fill-opacity="0.5" fill="#FFC12F" fill-rule="nonzero" cx="115" cy="110" r="4"></circle>
                <rect id="Rectangle-3" fill="#FFC12F" fill-rule="nonzero" x="55" y="81" width="49" height="11"></rect>
                <g id="noun_Gift_1253601" transform="translate(35.000000, 38.000000)">
                    <g id="Group">
                        <path d="M67.429,83.417 L67.429,54.546 L70.565,54.546 L70.565,42.247 L55.59,42.247 C57.308,40.899 58.416,38.809 58.416,36.455 C58.416,32.388 55.119,29.091 51.052,29.091 C48.034,29.091 45.443,30.909 44.306,33.507 C43.169,30.908 40.578,29.091 37.56,29.091 C33.493,29.091 30.196,32.388 30.196,36.455 C30.196,38.808 31.304,40.899 33.022,42.247 L18.047,42.247 L18.047,54.546 L21.183,54.546 L21.183,83.417 L67.429,83.417 Z M65.396,81.383 L45.323,81.383 L45.323,54.546 L65.396,54.546 L65.396,81.383 Z M68.532,44.281 L68.532,52.512 L67.43,52.512 L45.323,52.512 L45.323,44.281 L68.532,44.281 Z M45.722,36.456 C45.722,33.517 48.113,31.126 51.052,31.126 C53.991,31.126 56.382,33.517 56.382,36.456 C56.382,39.395 53.991,41.786 51.052,41.786 L45.722,41.786 L45.722,36.456 Z M32.23,36.456 C32.23,33.517 34.621,31.126 37.56,31.126 C40.499,31.126 42.89,33.517 42.89,36.456 L42.89,41.786 L37.56,41.786 C34.621,41.785 32.23,39.394 32.23,36.456 Z M20.081,52.512 L20.081,44.281 L43.289,44.281 L43.289,52.512 L21.183,52.512 L20.081,52.512 Z M43.289,54.546 L43.289,81.383 L23.217,81.383 L23.217,54.546 L43.289,54.546 Z" id="Shape" fill="#111111" fill-rule="nonzero"></path>
                        <path d="M80.331,76.526 C82.843,76.526 84.886,74.482 84.886,71.97 C84.886,69.458 82.842,67.415 80.331,67.415 C77.818,67.415 75.775,69.459 75.775,71.97 C75.775,74.482 77.818,76.526 80.331,76.526 Z M80.331,69.297 C81.805,69.297 83.003,70.496 83.003,71.969 C83.003,73.443 81.804,74.642 80.331,74.642 C78.857,74.642 77.658,73.442 77.658,71.969 C77.658,70.495 78.857,69.297 80.331,69.297 Z" id="Shape" fill="#111111" fill-rule="nonzero"></path>
                        <path d="M29.384,7.129 C29.384,4.617 27.34,2.574 24.828,2.574 C22.316,2.574 20.273,4.618 20.273,7.129 C20.273,9.642 22.317,11.685 24.828,11.685 C27.34,11.685 29.384,9.641 29.384,7.129 Z M22.155,7.129 C22.155,5.655 23.354,4.457 24.827,4.457 C26.3,4.457 27.5,5.656 27.5,7.129 C27.5,8.602 26.3,9.802 24.827,9.802 C23.354,9.802 22.155,8.603 22.155,7.129 Z" id="Shape" fill="#111111" fill-rule="nonzero"></path>
                        <path d="M6.576,76.996 C6.315,77.007 6.072,77.118 5.895,77.311 C5.718,77.504 5.626,77.753 5.637,78.015 C5.658,78.542 6.088,78.955 6.615,78.955 C7.671,78.912 8.611,78.478 9.302,77.729 C9.994,76.98 10.352,76.009 10.311,74.994 C10.27,73.978 9.835,73.038 9.087,72.346 C8.337,71.654 7.344,71.299 6.348,71.338 L6.347,71.338 C5.33,71.379 4.391,71.813 3.701,72.561 C3.012,73.31 2.655,74.283 2.696,75.302 C2.719,75.845 3.176,76.277 3.716,76.24 C3.975,76.23 4.217,76.118 4.394,75.926 C4.572,75.733 4.664,75.483 4.653,75.222 C4.632,74.726 4.806,74.253 5.142,73.889 C5.476,73.526 5.932,73.315 6.426,73.295 C6.449,73.294 6.471,73.294 6.494,73.294 C7.487,73.294 8.313,74.079 8.353,75.073 C8.374,75.565 8.2,76.036 7.863,76.401 C7.529,76.766 7.071,76.976 6.576,76.996 Z" id="Shape" fill="#FFC12F" fill-rule="nonzero"></path>
                        <path d="M84.363,42.55 C83.823,42.55 83.384,42.99 83.384,43.53 L83.384,45.785 C83.384,46.325 83.823,46.765 84.363,46.765 C84.903,46.765 85.343,46.325 85.343,45.785 L85.343,43.53 C85.343,42.99 84.903,42.55 84.363,42.55 Z" id="Shape" fill="#111111" fill-rule="nonzero"></path>
                        <path d="M84.363,49.608 C83.823,49.608 83.384,50.047 83.384,50.587 L83.384,52.843 C83.384,53.383 83.823,53.822 84.363,53.822 C84.903,53.822 85.343,53.383 85.343,52.843 L85.343,50.587 C85.343,50.047 84.903,49.608 84.363,49.608 Z" id="Shape" fill="#111111" fill-rule="nonzero"></path>
                        <path d="M89.02,47.207 L86.765,47.207 C86.225,47.207 85.785,47.647 85.785,48.187 C85.785,48.727 86.225,49.166 86.765,49.166 L89.02,49.166 C89.56,49.166 90,48.727 90,48.187 C90,47.647 89.56,47.207 89.02,47.207 Z" id="Shape" fill="#111111" fill-rule="nonzero"></path>
                        <path d="M79.707,47.207 C79.167,47.207 78.727,47.647 78.727,48.187 C78.727,48.727 79.167,49.166 79.707,49.166 L81.962,49.166 C82.502,49.166 82.942,48.727 82.942,48.187 C82.942,47.647 82.502,47.207 81.962,47.207 L79.707,47.207 Z" id="Shape" fill="#111111" fill-rule="nonzero"></path>
                        <path d="M11.6,10.993 L10.005,12.588 C9.623,12.97 9.623,13.591 10.005,13.973 C10.373,14.343 11.02,14.345 11.39,13.973 L12.985,12.378 C13.367,11.996 13.367,11.375 12.985,10.993 C12.794,10.802 12.543,10.707 12.292,10.707 C12.042,10.707 11.79,10.802 11.6,10.993 Z" id="Shape" fill="#FFC12F" fill-rule="nonzero"></path>
                        <path d="M6.4,18.964 L7.995,17.369 C8.181,17.184 8.283,16.938 8.283,16.676 C8.283,16.415 8.181,16.169 7.995,15.984 C7.804,15.793 7.553,15.698 7.303,15.698 C7.052,15.698 6.8,15.793 6.61,15.984 L5.015,17.579 C4.633,17.961 4.633,18.582 5.015,18.964 C5.385,19.335 6.03,19.334 6.4,18.964 Z" id="Shape" fill="#FFC12F" fill-rule="nonzero"></path>
                        <path d="M11.6,18.964 C11.968,19.335 12.615,19.335 12.985,18.964 C13.367,18.582 13.367,17.961 12.985,17.579 L11.39,15.984 C11.199,15.793 10.948,15.698 10.697,15.698 C10.447,15.698 10.195,15.793 10.005,15.984 C9.623,16.366 9.623,16.987 10.005,17.369 L11.6,18.964 Z" id="Shape" fill="#FFC12F" fill-rule="nonzero"></path>
                        <path d="M6.609,13.974 C6.991,14.356 7.614,14.354 7.994,13.974 C8.376,13.592 8.376,12.97 7.994,12.588 L6.4,10.993 C6.209,10.802 5.958,10.707 5.708,10.707 C5.457,10.707 5.205,10.802 5.015,10.993 C4.633,11.375 4.633,11.996 5.015,12.378 L6.609,13.974 Z" id="Shape" fill="#FFC12F" fill-rule="nonzero"></path>
                        <path d="M80.226,4.395 L81.821,2.8 C82.007,2.615 82.109,2.369 82.109,2.107 C82.109,1.846 82.007,1.6 81.821,1.415 C81.63,1.224 81.379,1.129 81.128,1.129 C80.878,1.129 80.626,1.224 80.436,1.415 L78.841,3.01 C78.459,3.392 78.459,4.013 78.841,4.395 C79.211,4.766 79.857,4.765 80.226,4.395 Z" id="Shape" fill="#111111" fill-rule="nonzero"></path>
                        <path d="M75.235,9.385 L76.83,7.79 C77.016,7.605 77.118,7.359 77.118,7.097 C77.118,6.836 77.016,6.59 76.83,6.405 C76.645,6.219 76.399,6.117 76.137,6.117 C75.876,6.117 75.63,6.219 75.445,6.405 L73.85,8 C73.468,8.382 73.468,9.003 73.85,9.385 C74.219,9.757 74.866,9.756 75.235,9.385 Z" id="Shape" fill="#111111" fill-rule="nonzero"></path>
                        <path d="M80.435,9.385 C80.805,9.756 81.452,9.755 81.82,9.385 C82.006,9.2 82.108,8.954 82.108,8.692 C82.108,8.431 82.006,8.185 81.82,8 L80.225,6.405 C80.034,6.214 79.783,6.119 79.533,6.119 C79.282,6.119 79.03,6.214 78.84,6.405 C78.458,6.787 78.458,7.408 78.84,7.79 L80.435,9.385 Z" id="Shape" fill="#111111" fill-rule="nonzero"></path>
                        <path d="M75.445,4.395 C75.814,4.766 76.461,4.765 76.83,4.395 C77.016,4.21 77.118,3.964 77.118,3.702 C77.118,3.441 77.016,3.195 76.83,3.01 L75.235,1.415 C75.044,1.224 74.793,1.129 74.543,1.129 C74.292,1.129 74.04,1.224 73.85,1.415 C73.468,1.797 73.468,2.418 73.85,2.8 L75.445,4.395 Z" id="Shape" fill="#111111" fill-rule="nonzero"></path>
                        <path d="M73.823,24.339 C74.458,24.385 75.076,24.32 75.634,24.254 C76.918,24.103 77.676,24.053 78.394,24.771 C79.111,25.488 79.06,26.247 78.909,27.528 C78.843,28.087 78.778,28.705 78.824,29.34 C78.887,30.214 79.168,31.121 80.007,31.96 L80.726,31.241 L81.445,30.522 C80.728,29.805 80.779,29.046 80.93,27.765 C81.087,26.436 81.282,24.782 79.833,23.333 C78.382,21.882 76.727,22.077 75.399,22.234 C74.116,22.387 73.358,22.436 72.639,21.717 C71.92,20.998 71.971,20.237 72.121,18.955 C72.276,17.625 72.47,15.971 71.02,14.52 C69.57,13.069 67.916,13.263 66.585,13.42 C65.304,13.569 64.544,13.621 63.824,12.901 L63.105,13.62 L62.386,14.339 C63.225,15.178 64.133,15.459 65.008,15.523 C65.644,15.569 66.262,15.505 66.821,15.44 C68.102,15.29 68.864,15.24 69.582,15.958 C70.301,16.677 70.25,17.438 70.1,18.72 C70.035,19.279 69.97,19.897 70.017,20.532 C70.081,21.407 70.362,22.315 71.202,23.155 C72.04,23.995 72.949,24.276 73.823,24.339 Z" id="Shape" fill="#FFC12F" fill-rule="nonzero"></path>
                        <path d="M43.869,14.586 C42.654,15.15 41.143,15.852 40.666,17.846 C40.19,19.841 41.222,21.15 42.051,22.202 C42.85,23.216 43.29,23.838 43.055,24.826 L45.033,25.299 C45.309,24.143 45.072,23.222 44.668,22.443 C44.375,21.878 43.996,21.385 43.647,20.943 C42.848,19.929 42.408,19.307 42.643,18.319 C42.879,17.33 43.553,16.974 44.724,16.431 C45.235,16.194 45.795,15.925 46.312,15.554 C47.024,15.042 47.65,14.327 47.926,13.171 C48.202,12.016 47.965,11.095 47.561,10.317 C47.268,9.752 46.889,9.259 46.54,8.817 C45.741,7.804 45.301,7.182 45.536,6.195 C45.771,5.209 46.445,4.853 47.615,4.312 C48.126,4.075 48.686,3.807 49.203,3.436 C49.915,2.924 50.541,2.21 50.817,1.056 L48.839,0.583 C48.604,1.569 47.93,1.924 46.76,2.466 C45.545,3.029 44.034,3.73 43.558,5.722 C43.082,7.716 44.114,9.025 44.943,10.076 C45.742,11.089 46.182,11.711 45.947,12.698 C45.713,13.687 45.039,14.043 43.869,14.586 Z" id="Shape" fill="#111111" fill-rule="nonzero"></path>
                        <path d="M0.947,51.746 L0.946,51.747" id="Shape"></path>
                        <path d="M1.893,52.119 C2.264,51.176 2.98,50.918 4.214,50.546 C5.496,50.159 7.09,49.676 7.84,47.769 C8.591,45.86 7.752,44.421 7.077,43.264 C6.428,42.149 6.078,41.472 6.449,40.528 C6.821,39.582 7.538,39.323 8.773,38.95 C10.055,38.561 11.65,38.078 12.4,36.169 C13.15,34.26 12.312,32.82 11.638,31.663 C10.989,30.547 10.639,29.87 11.011,28.924 L10.064,28.551 L9.118,28.179 C8.683,29.285 8.788,30.23 9.079,31.057 C9.29,31.658 9.596,32.199 9.88,32.685 C10.529,33.8 10.878,34.478 10.507,35.423 C10.136,36.369 9.419,36.628 8.183,37.002 C7.644,37.165 7.052,37.353 6.488,37.649 C5.712,38.057 4.991,38.677 4.556,39.783 C4.122,40.888 4.227,41.832 4.518,42.659 C4.729,43.259 5.035,43.8 5.319,44.287 C5.968,45.401 6.318,46.079 5.947,47.024 C5.577,47.967 4.86,48.225 3.626,48.597 C3.087,48.76 2.494,48.947 1.931,49.243 C1.154,49.651 0.434,50.27 0,51.374 L0.947,51.746 L1.893,52.119 Z" id="Shape" fill="#111111" fill-rule="nonzero"></path>
                    </g>
                </g>
            </g>
        </g>
    </g>
</svg>