<?xml version="1.0" encoding="UTF-8"?>
<svg width="254px" height="254px" viewBox="0 0 254 254" version="1.1" xmlns="http://www.w3.org/2000/svg" xmlns:xlink="http://www.w3.org/1999/xlink">
    <!-- Generator: sketchtool 51.3 (57544) - http://www.bohemiancoding.com/sketch -->
    <title>82A39CA3-EAAD-460C-8533-0CC86B597538</title>
    <desc>Created with sketchtool.</desc>
    <defs>
        <polygon id="path-1" points="0 0 142.432992 0 142.432992 101.495901 0 101.495901"></polygon>
    </defs>
    <g id="Page-1" stroke="none" stroke-width="1" fill="none" fill-rule="evenodd">
        <g id="Site-V2-Edited" transform="translate(-500.000000, -1668.000000)">
            <g id="Group-12" transform="translate(500.000000, 1668.000000)">
                <g>
                    <circle id="Oval-2-Copy-4" fill="#FFFFFF" fill-rule="nonzero" cx="127" cy="127" r="127"></circle>
                    <g id="Group-3" transform="translate(62.000000, 77.000000)">
                        <polygon id="Path-9" fill-opacity="0.5" fill="#FFC12F" fill-rule="nonzero" points="2.39963942 43.6988798 10.7099609 32.8200542 18.5798528 31.0460195 56.8088191 68.2661738 120.582707 3.59416968 129.17811 2.07286286 136.795974 8.12186854 140.941632 14.5783671 138.296575 21.8852499 61.310622 98.3975981 51.7533804 98.3975981 2.39963942 50.2352305"></polygon>
                        <mask id="mask-2" fill="white">
                            <use xlink:href="#path-1"></use>
                        </mask>
                        <g id="Clip-2"></g>
                        <path d="M136.340685,20.3934248 L72.4137615,84.0802017 L61.0245308,95.4266479 C60.7199154,95.730119 60.3814538,95.9998711 60.0345308,96.2359041 C59.6368385,96.4972264 59.2222231,96.7079702 58.7822231,96.8681355 C58.4945308,96.9768793 58.1983769,97.0620198 57.9022231,97.1294579 C57.0053,97.3233421 56.0745308,97.3233421 55.1776077,97.1294579 C54.8814538,97.0620198 54.5853,96.9768793 54.2976077,96.8681355 C53.8576077,96.7079702 53.4429923,96.4972264 53.0453,96.2359041 C52.6983769,95.9998711 52.3599154,95.730119 52.0553,95.4266479 L40.6660692,84.0802017 L6.08376154,49.6362347 C3.61299231,47.1663174 3.61299231,43.1621851 6.08376154,40.6922678 L11.4991462,35.2972264 C12.7345308,34.0664826 14.3591462,33.4511107 15.9837615,33.4511107 C17.6168385,33.4511107 19.2414538,34.0664826 20.4768385,35.2972264 L53.5445308,68.2491273 L56.5399154,71.2332595 L59.5353,68.2491273 L121.956069,6.06284628 C123.191454,4.82367273 124.816069,4.20830083 126.440685,4.20830083 C128.0653,4.20830083 129.689915,4.82367273 130.933762,6.06284628 L136.340685,11.4494579 C137.542223,12.6464826 138.202223,14.231276 138.202223,15.9256562 C138.202223,17.6116066 137.542223,19.1964 136.340685,20.3934248 Z M139.336069,8.47375537 L133.920685,3.07871405 C129.799915,-1.02657521 123.089915,-1.02657521 118.960685,3.07871405 L56.5399154,65.264995 L23.4637615,32.321524 C19.3429923,28.207805 12.6329923,28.2162347 8.51222308,32.321524 L3.09683846,37.7165653 C-1.03239231,41.8218545 -1.03239231,48.505805 3.09683846,52.6119372 L43.6276077,92.9988793 C43.6360692,93.0073091 43.6360692,93.0073091 43.6445308,93.0157388 L49.0599154,98.4107802 C49.3137615,98.6628298 49.5845308,98.9081355 49.8637615,99.1357388 C49.9991462,99.2453256 50.1429923,99.3549124 50.2868385,99.4560694 C50.4306846,99.5572264 50.5745308,99.6583835 50.7183769,99.7595405 C51.1583769,100.054582 51.6153,100.307474 52.0891462,100.518218 C52.2668385,100.602516 52.4445308,100.669954 52.6222231,100.745821 C52.7999154,100.81326 52.9776077,100.880698 53.1637615,100.939706 C53.6968385,101.12516 54.2468385,101.260036 54.8053,101.352764 C54.8137615,101.344334 54.8222231,101.344334 54.8306846,101.352764 C55.3891462,101.453921 55.9645308,101.496069 56.5399154,101.496069 C57.1153,101.496069 57.6906846,101.453921 58.2491462,101.352764 C58.2576077,101.344334 58.2660692,101.344334 58.2745308,101.352764 C58.8329923,101.260036 59.3829923,101.12516 59.9160692,100.939706 C60.1022231,100.880698 60.2799154,100.81326 60.4576077,100.745821 C60.6353,100.669954 60.8129923,100.602516 60.9906846,100.518218 C61.4645308,100.307474 61.9214538,100.054582 62.3614538,99.7595405 C62.5053,99.6583835 62.6491462,99.5572264 62.7929923,99.4560694 C62.9368385,99.3549124 63.0806846,99.2453256 63.2160692,99.1357388 C63.4953,98.9081355 63.7660692,98.6628298 64.0199154,98.4107802 L139.336069,23.377557 C141.332992,21.3881355 142.432992,18.7411934 142.432992,15.9256562 C142.432992,13.110119 141.332992,10.4631769 139.336069,8.47375537 Z" id="Fill-1" fill="#111111" mask="url(#mask-2)"></path>
                    </g>
                    <g id="Group-3" transform="translate(49.000000, 31.000000)" fill-rule="nonzero">
                        <ellipse id="Oval-7" fill="#FFC12F" cx="8.03846154" cy="151.354839" rx="6.34615385" ry="6.359447"></ellipse>
                        <ellipse id="Oval-7-Copy" fill="#FFC12F" cx="70.6538462" cy="41.124424" rx="6.34615385" ry="6.359447"></ellipse>
                        <path d="M16.0769231,152.201881 C16.0769231,147.760017 12.4701586,144.147465 8.03757926,144.147465 C3.60499987,144.147465 0,147.761785 0,152.201881 C0,156.645513 3.60676444,160.258065 8.03757926,160.258065 C12.4701586,160.258065 16.0769231,156.643745 16.0769231,152.201881 Z M3.32090541,152.201881 C3.32090541,149.595468 5.43661508,147.477095 8.0358147,147.477095 C10.6350143,147.477095 12.7524885,149.597237 12.7524885,152.201881 C12.7524885,154.806525 10.6350143,156.928435 8.0358147,156.928435 C5.43661508,156.928435 3.32090541,154.808293 3.32090541,152.201881 Z" id="Shape" fill="#111111"></path>
                        <path d="M79.5384615,41.9714661 C79.5384615,37.5296019 75.9316971,33.9170507 71.4991177,33.9170507 C67.0665383,33.9170507 63.4615385,37.5313701 63.4615385,41.9714661 C63.4615385,46.4150986 67.0683029,50.0276498 71.4991177,50.0276498 C75.9316971,50.0276498 79.5384615,46.4133303 79.5384615,41.9714661 Z M66.7824439,41.9714661 C66.7824439,39.3650537 68.8981535,37.2466806 71.4973532,37.2466806 C74.0965528,37.2466806 76.214027,39.366822 76.214027,41.9714661 C76.214027,44.5761102 74.0965528,46.6980199 71.4973532,46.6980199 C68.8981535,46.6980199 66.7824439,44.5778785 66.7824439,41.9714661 Z" id="Shape-Copy-5" fill="#111111"></path>
                        <path d="M158.359565,127.092753 C157.895927,127.112337 157.464265,127.309967 157.149845,127.653593 C156.835424,127.997219 156.671997,128.44055 156.691537,128.907026 C156.728841,129.845321 157.492688,130.580645 158.428844,130.580645 C160.304709,130.504086 161.974513,129.731373 163.201996,128.397819 C164.431256,127.064265 165.067203,125.335453 164.994371,123.528301 C164.921539,121.719368 164.148811,120.045749 162.820073,118.813681 C161.487783,117.581613 159.72383,116.949555 157.954548,117.018992 L157.952772,117.018992 C156.146186,117.09199 154.478158,117.864704 153.252451,119.196477 C152.02852,120.530031 151.39435,122.262404 151.467182,124.076678 C151.508039,125.04346 152.319848,125.812612 153.279097,125.746736 C153.739181,125.728931 154.169067,125.529521 154.483487,125.187676 C154.799684,124.84405 154.963112,124.398939 154.943572,123.934242 C154.906268,123.051141 155.215359,122.208991 155.812225,121.560909 C156.405538,120.914607 157.215571,120.538933 158.093106,120.503324 C158.133963,120.501543 158.173044,120.501543 158.213901,120.501543 C159.977853,120.501543 161.445149,121.899193 161.516205,123.668956 C161.553509,124.544935 161.244418,125.383525 160.645775,126.033387 C160.052462,126.68325 159.238876,127.057144 158.359565,127.092753 Z" id="Shape" fill="#FFC12F"></path>
                        <g id="Group-4" transform="translate(94.769231, 163.649770)" fill="#111111">
                            <path d="M10.5582341,0 C9.60465552,0 8.82943144,0.778617512 8.82943144,1.73419355 L8.82943144,5.72460829 C8.82943144,6.68018433 9.60465552,7.45880184 10.5582341,7.45880184 C11.5118127,7.45880184 12.2888027,6.68018433 12.2888027,5.72460829 L12.2888027,1.73419355 C12.2888027,0.778617512 11.5118127,0 10.5582341,0 Z" id="Shape"></path>
                            <path d="M10.5582341,12.3870968 C9.60465552,12.3870968 8.82943144,13.1639447 8.82943144,14.1195207 L8.82943144,18.1117051 C8.82943144,19.0672811 9.60465552,19.844129 10.5582341,19.844129 C11.5118127,19.844129 12.2888027,19.0672811 12.2888027,18.1117051 L12.2888027,14.1195207 C12.2888027,13.1639447 11.5118127,12.3870968 10.5582341,12.3870968 Z" id="Shape"></path>
                            <path d="M18.0738462,8.84792627 L14.0917726,8.84792627 C13.138194,8.84792627 12.361204,9.62654378 12.361204,10.5821198 C12.361204,11.5376959 13.138194,12.3145438 14.0917726,12.3145438 L18.0738462,12.3145438 C19.0274247,12.3145438 19.8044147,11.5376959 19.8044147,10.5821198 C19.8044147,9.62654378 19.0274247,8.84792627 18.0738462,8.84792627 Z" id="Shape"></path>
                            <path d="M1.73056856,8.84792627 C0.776989967,8.84792627 0,9.62654378 0,10.5821198 C0,11.5376959 0.776989967,12.3145438 1.73056856,12.3145438 L5.71264214,12.3145438 C6.66622074,12.3145438 7.4432107,11.5376959 7.4432107,10.5821198 C7.4432107,9.62654378 6.66622074,8.84792627 5.71264214,8.84792627 L1.73056856,8.84792627 Z" id="Shape"></path>
                        </g>
                        <g id="Group-5" transform="translate(114.230769, 0.000000)" fill="#111111">
                            <path d="M10.5582341,0 C9.60465552,0 8.82943144,0.778617512 8.82943144,1.73419355 L8.82943144,5.72460829 C8.82943144,6.68018433 9.60465552,7.45880184 10.5582341,7.45880184 C11.5118127,7.45880184 12.2888027,6.68018433 12.2888027,5.72460829 L12.2888027,1.73419355 C12.2888027,0.778617512 11.5118127,0 10.5582341,0 Z" id="Shape-Copy"></path>
                            <path d="M10.5582341,12.3870968 C9.60465552,12.3870968 8.82943144,13.1639447 8.82943144,14.1195207 L8.82943144,18.1117051 C8.82943144,19.0672811 9.60465552,19.844129 10.5582341,19.844129 C11.5118127,19.844129 12.2888027,19.0672811 12.2888027,18.1117051 L12.2888027,14.1195207 C12.2888027,13.1639447 11.5118127,12.3870968 10.5582341,12.3870968 Z" id="Shape-Copy-2"></path>
                            <path d="M18.0738462,8.84792627 L14.0917726,8.84792627 C13.138194,8.84792627 12.361204,9.62654378 12.361204,10.5821198 C12.361204,11.5376959 13.138194,12.3145438 14.0917726,12.3145438 L18.0738462,12.3145438 C19.0274247,12.3145438 19.8044147,11.5376959 19.8044147,10.5821198 C19.8044147,9.62654378 19.0274247,8.84792627 18.0738462,8.84792627 Z" id="Shape-Copy-3"></path>
                            <path d="M1.73056856,8.84792627 C0.776989967,8.84792627 0,9.62654378 0,10.5821198 C0,11.5376959 0.776989967,12.3145438 1.73056856,12.3145438 L5.71264214,12.3145438 C6.66622074,12.3145438 7.4432107,11.5376959 7.4432107,10.5821198 C7.4432107,9.62654378 6.66622074,8.84792627 5.71264214,8.84792627 L1.73056856,8.84792627 Z" id="Shape-Copy-4"></path>
                        </g>
                        <g id="Group-6" transform="translate(0.846154, 33.917051)" fill="#FFC12F">
                            <path d="M12.682906,0.882502816 L9.83371795,3.73765899 C9.15134188,4.42146441 9.15134188,5.53309575 9.83371795,6.21690118 C10.4910855,6.87922581 11.6468376,6.88280594 12.3077778,6.21690118 L15.1569658,3.36174501 C15.8393419,2.67793958 15.8393419,1.56630824 15.1569658,0.882502816 C14.8157778,0.540600102 14.3674103,0.370543779 13.9190427,0.370543779 C13.4724615,0.370543779 13.0223077,0.540600102 12.682906,0.882502816 Z" id="Shape"></path>
                            <path d="M3.39401709,15.1511234 L6.24320513,12.2959672 C6.57546154,11.9648049 6.75766667,11.5244485 6.75766667,11.0554511 C6.75766667,10.5882437 6.57546154,10.1478874 6.24320513,9.81672504 C5.90201709,9.47482232 5.45364957,9.304766 5.00706838,9.304766 C4.55870085,9.304766 4.10854701,9.47482232 3.7691453,9.81672504 L0.919957265,12.6718812 C0.237581197,13.3556866 0.237581197,14.467318 0.919957265,15.1511234 C1.58089744,15.8152381 2.73307692,15.813448 3.39401709,15.1511234 Z" id="Shape"></path>
                            <path d="M12.682906,15.1511234 C13.3402735,15.8152381 14.4960256,15.8152381 15.1569658,15.1511234 C15.8393419,14.467318 15.8393419,13.3556866 15.1569658,12.6718812 L12.3077778,9.81672504 C11.9665897,9.47482232 11.5182222,9.304766 11.0698547,9.304766 C10.6232735,9.304766 10.1731197,9.47482232 9.83371795,9.81672504 C9.15134188,10.5005305 9.15134188,11.6121618 9.83371795,12.2959672 L12.682906,15.1511234 Z" id="Shape"></path>
                            <path d="M3.76735897,6.21869124 C4.44973504,6.90249667 5.56261538,6.89891654 6.2414188,6.21869124 C6.92379487,5.53488582 6.92379487,4.42146441 6.2414188,3.73765899 L3.39401709,0.882502816 C3.05282906,0.540600102 2.60446154,0.370543779 2.15788034,0.370543779 C1.70951282,0.370543779 1.25935897,0.540600102 0.919957265,0.882502816 C0.237581197,1.56630824 0.237581197,2.67793958 0.919957265,3.36174501 L3.76735897,6.21869124 Z" id="Shape"></path>
                        </g>
                    </g>
                </g>
            </g>
        </g>
    </g>
</svg>