<?xml version="1.0" encoding="UTF-8"?>
<svg width="164px" height="164px" viewBox="0 0 164 164" version="1.1" xmlns="http://www.w3.org/2000/svg" xmlns:xlink="http://www.w3.org/1999/xlink">
    <!-- Generator: sketchtool 51.3 (57544) - http://www.bohemiancoding.com/sketch -->
    <title>4CCC9466-30CB-40B1-8774-01805D900105</title>
    <desc>Created with sketchtool.</desc>
    <defs></defs>
    <g id="Page-1" stroke="none" stroke-width="1" fill="none" fill-rule="evenodd">
        <g id="Site-V2" transform="translate(-1254.000000, -1498.000000)">
            <g id="Icon_Gift" transform="translate(1256.000000, 1500.000000)">
                <circle id="Oval-2-Copy-2" stroke="#FFF6CE" stroke-width="3" fill="#FFFFFF" fill-rule="nonzero" cx="80" cy="80" r="80"></circle>
                <circle id="Oval-6" fill-opacity="0.5" fill="#FFC12F" fill-rule="nonzero" cx="70" cy="25" r="4"></circle>
                <circle id="Oval-6-Copy" fill-opacity="0.5" fill="#FFC12F" fill-rule="nonzero" cx="83" cy="135" r="4"></circle>
                <g id="noun_Gift_1253601" transform="translate(22.000000, 20.000000)">
                    <g id="Group">
                        <path d="M61.331,119.526 C63.843,119.526 65.886,117.482 65.886,114.97 C65.886,112.458 63.842,110.415 61.331,110.415 C58.818,110.415 56.775,112.459 56.775,114.97 C56.775,117.482 58.818,119.526 61.331,119.526 Z M61.331,112.297 C62.805,112.297 64.003,113.496 64.003,114.969 C64.003,116.443 62.804,117.642 61.331,117.642 C59.857,117.642 58.658,116.442 58.658,114.969 C58.658,113.495 59.857,112.297 61.331,112.297 Z" id="Shape" fill="#111111" fill-rule="nonzero"></path>
                        <path d="M52.384,5.129 C52.384,2.617 50.34,0.574 47.828,0.574 C45.316,0.574 43.273,2.618 43.273,5.129 C43.273,7.642 45.317,9.685 47.828,9.685 C50.34,9.685 52.384,7.641 52.384,5.129 Z M45.155,5.129 C45.155,3.655 46.354,2.457 47.827,2.457 C49.3,2.457 50.5,3.656 50.5,5.129 C50.5,6.602 49.3,7.802 47.827,7.802 C46.354,7.802 45.155,6.603 45.155,5.129 Z" id="Shape" fill="#111111" fill-rule="nonzero"></path>
                        <path d="M91.576,21.996 C91.315,22.007 91.072,22.118 90.895,22.311 C90.718,22.504 90.626,22.753 90.637,23.015 C90.658,23.542 91.088,23.955 91.615,23.955 C92.671,23.912 93.611,23.478 94.302,22.729 C94.994,21.98 95.352,21.009 95.311,19.994 C95.27,18.978 94.835,18.038 94.087,17.346 C93.337,16.654 92.344,16.299 91.348,16.338 L91.347,16.338 C90.33,16.379 89.391,16.813 88.701,17.561 C88.012,18.31 87.655,19.283 87.696,20.302 C87.719,20.845 88.176,21.277 88.716,21.24 C88.975,21.23 89.217,21.118 89.394,20.926 C89.572,20.733 89.664,20.483 89.653,20.222 C89.632,19.726 89.806,19.253 90.142,18.889 C90.476,18.526 90.932,18.315 91.426,18.295 C91.449,18.294 91.471,18.294 91.494,18.294 C92.487,18.294 93.313,19.079 93.353,20.073 C93.374,20.565 93.2,21.036 92.863,21.401 C92.529,21.766 92.071,21.976 91.576,21.996 Z" id="Shape" fill="#FFC12F" fill-rule="nonzero"></path>
                        <g id="Group-11" transform="translate(0.000000, 65.000000)" fill="#111111" fill-rule="nonzero">
                            <path d="M6.363,0.55 C5.823,0.55 5.384,0.99 5.384,1.53 L5.384,3.785 C5.384,4.325 5.823,4.765 6.363,4.765 C6.903,4.765 7.343,4.325 7.343,3.785 L7.343,1.53 C7.343,0.99 6.903,0.55 6.363,0.55 Z" id="Shape"></path>
                            <path d="M6.363,7.608 C5.823,7.608 5.384,8.047 5.384,8.587 L5.384,10.843 C5.384,11.383 5.823,11.822 6.363,11.822 C6.903,11.822 7.343,11.383 7.343,10.843 L7.343,8.587 C7.343,8.047 6.903,7.608 6.363,7.608 Z" id="Shape"></path>
                            <path d="M11.02,5.207 L8.765,5.207 C8.225,5.207 7.785,5.647 7.785,6.187 C7.785,6.727 8.225,7.166 8.765,7.166 L11.02,7.166 C11.56,7.166 12,6.727 12,6.187 C12,5.647 11.56,5.207 11.02,5.207 Z" id="Shape"></path>
                            <path d="M1.707,5.207 C1.167,5.207 0.727,5.647 0.727,6.187 C0.727,6.727 1.167,7.166 1.707,7.166 L3.962,7.166 C4.502,7.166 4.942,6.727 4.942,6.187 C4.942,5.647 4.502,5.207 3.962,5.207 L1.707,5.207 Z" id="Shape"></path>
                        </g>
                        <g id="Group-9" transform="translate(17.000000, 28.000000)" fill="#FFC12F" fill-rule="nonzero">
                            <path d="M7.6,0.993 L6.005,2.588 C5.623,2.97 5.623,3.591 6.005,3.973 C6.373,4.343 7.02,4.345 7.39,3.973 L8.985,2.378 C9.367,1.996 9.367,1.375 8.985,0.993 C8.794,0.802 8.543,0.707 8.292,0.707 C8.042,0.707 7.79,0.802 7.6,0.993 Z" id="Shape"></path>
                            <path d="M2.4,8.964 L3.995,7.369 C4.181,7.184 4.283,6.938 4.283,6.676 C4.283,6.415 4.181,6.169 3.995,5.984 C3.804,5.793 3.553,5.698 3.303,5.698 C3.052,5.698 2.8,5.793 2.61,5.984 L1.015,7.579 C0.633,7.961 0.633,8.582 1.015,8.964 C1.385,9.335 2.03,9.334 2.4,8.964 Z" id="Shape"></path>
                            <path d="M7.6,8.964 C7.968,9.335 8.615,9.335 8.985,8.964 C9.367,8.582 9.367,7.961 8.985,7.579 L7.39,5.984 C7.199,5.793 6.948,5.698 6.697,5.698 C6.447,5.698 6.195,5.793 6.005,5.984 C5.623,6.366 5.623,6.987 6.005,7.369 L7.6,8.964 Z" id="Shape"></path>
                            <path d="M2.609,3.974 C2.991,4.356 3.614,4.354 3.994,3.974 C4.376,3.592 4.376,2.97 3.994,2.588 L2.4,0.993 C2.209,0.802 1.958,0.707 1.708,0.707 C1.457,0.707 1.205,0.802 1.015,0.993 C0.633,1.375 0.633,1.996 1.015,2.378 L2.609,3.974 Z" id="Shape"></path>
                        </g>
                        <g id="Group-10" transform="translate(107.000000, 46.000000)" fill="#111111" fill-rule="nonzero">
                            <path d="M7.226,3.395 L8.821,1.8 C9.007,1.615 9.109,1.369 9.109,1.107 C9.109,0.846 9.007,0.6 8.821,0.415 C8.63,0.224 8.379,0.129 8.128,0.129 C7.878,0.129 7.626,0.224 7.436,0.415 L5.841,2.01 C5.459,2.392 5.459,3.013 5.841,3.395 C6.211,3.766 6.857,3.765 7.226,3.395 Z" id="Shape"></path>
                            <path d="M2.235,8.385 L3.83,6.79 C4.016,6.605 4.118,6.359 4.118,6.097 C4.118,5.836 4.016,5.59 3.83,5.405 C3.645,5.219 3.399,5.117 3.137,5.117 C2.876,5.117 2.63,5.219 2.445,5.405 L0.85,7 C0.468,7.382 0.468,8.003 0.85,8.385 C1.219,8.757 1.866,8.756 2.235,8.385 Z" id="Shape"></path>
                            <path d="M7.435,8.385 C7.805,8.756 8.452,8.755 8.82,8.385 C9.006,8.2 9.108,7.954 9.108,7.692 C9.108,7.431 9.006,7.185 8.82,7 L7.225,5.405 C7.034,5.214 6.783,5.119 6.533,5.119 C6.282,5.119 6.03,5.214 5.84,5.405 C5.458,5.787 5.458,6.408 5.84,6.79 L7.435,8.385 Z" id="Shape"></path>
                            <path d="M2.445,3.395 C2.814,3.766 3.461,3.765 3.83,3.395 C4.016,3.21 4.118,2.964 4.118,2.702 C4.118,2.441 4.016,2.195 3.83,2.01 L2.235,0.415 C2.044,0.224 1.793,0.129 1.543,0.129 C1.292,0.129 1.04,0.224 0.85,0.415 C0.468,0.797 0.468,1.418 0.85,1.8 L2.445,3.395 Z" id="Shape"></path>
                        </g>
                        <path d="M13.947,69.746 L13.946,69.747" id="Shape"></path>
                    </g>
                </g>
                <path d="M47.9951172,108.711914 C73.3551432,108.711914 86.0351562,108.711914 86.0351562,108.711914 C86.0351562,108.711914 86.9780273,108.170247 88.8637695,107.086914 C89.4575195,105.483073 89.4575195,104.681152 88.8637695,104.681152 C88.2700195,104.681152 87.0810547,103.241862 85.296875,100.363281 L85.296875,78.5605469 L82.2143555,71.3110352 L75.1147461,66.0839844 L71.0693359,64.1938477 L75.1147461,54.6425781 L71.8666992,53.394043 L67.6679688,54.6425781 L63.8706055,53.394043 L59.3452148,54.6425781 L63.8706055,64.1938477 L56.3662109,67.9560547 L50.543457,75.2944336 L49.4155273,85.5576172 L49.4155273,100.363281 L47.9951172,103.615234 L46.1914062,105.999023 L47.9951172,108.711914 Z" id="Path-12" fill-opacity="0.5" fill="#FFC12F" fill-rule="nonzero"></path>
                <circle id="Oval-8" fill="#FFC12F" fill-rule="nonzero" cx="100.5" cy="63.5" r="9.5"></circle>
                <g id="Group" transform="translate(45.000000, 44.000000)" fill="#000000" fill-rule="nonzero">
                    <path d="M3.84870259,66 L41.1512974,66 C42.60907,66 43.9417261,65.1827685 44.5936618,63.8890213 C45.2455975,62.5952741 45.1049053,61.0470886 44.2302417,59.8899259 L41.4473497,56.2086063 L41.4473497,37.799658 C41.4331321,29.3775487 35.7807325,21.9904028 27.6086792,19.7138387 L31.8552539,11.2995617 C32.1220913,10.7695355 31.949493,10.1253026 31.4526228,9.79671846 L30.2684134,9.01180894 C28.4493607,7.81264676 26.1231987,7.66925868 24.168551,8.63580438 C23.1219375,9.15346504 21.8910888,9.15346504 20.8444753,8.63580438 C18.8901437,7.6697148 16.564564,7.81309481 14.7457971,9.01180894 L13.5615878,9.79671846 C13.0647175,10.1253026 12.8921192,10.7695355 13.1589566,11.2995617 L17.3996103,19.7138387 C9.22427039,21.9873442 3.5679133,29.3752367 3.55265025,37.799658 L3.55265025,56.2086063 L0.76975826,59.8899259 C-0.104905302,61.0470886 -0.245597548,62.5952741 0.40633818,63.8890213 C1.05827391,65.1827685 2.39092999,66 3.84870259,66 Z M15.7369804,11.1761852 L16.0531642,10.9682077 C17.1630614,10.2350525 18.5829481,10.1454588 19.7775027,10.7332048 C21.4929325,11.5803405 23.509436,11.5803405 25.2248657,10.7332048 C26.4193351,10.1430251 27.8408566,10.2326934 28.9503884,10.9682077 L29.2665723,11.1761852 L25.2118394,19.2144577 C24.3142505,19.0784244 23.4079703,19.0065635 22.5,18.9994301 C21.5920297,19.0065635 20.6857495,19.0784244 19.7881606,19.2144577 L15.7369804,11.1761852 Z M2.66449323,61.299943 L5.6842271,57.3048946 C5.83796368,57.1015041 5.92106897,56.8541241 5.92106897,56.599886 L5.92106897,37.799658 C5.92106897,28.7144637 13.3437092,21.3494586 22.5,21.3494586 C31.6562908,21.3494586 39.078931,28.7144637 39.078931,37.799658 L39.078931,56.599886 C39.078931,56.8541241 39.1620363,57.1015041 39.3157729,57.3048946 L42.3355068,61.299943 C42.6719158,61.7450056 42.7260282,62.3404616 42.4752837,62.8380566 C42.2245392,63.3356517 41.7119792,63.6499715 41.1512974,63.6499715 L3.84870259,63.6499715 C3.28802082,63.6499715 2.77546079,63.3356517 2.52471628,62.8380566 C2.27397177,62.3404616 2.32808417,61.7450056 2.66449323,61.299943 Z" id="Shape"></path>
                    <path d="M68.8636622,35.1316678 L65.4546489,35.1316678 L65.4546489,29.19545 C65.4546489,28.5397535 64.9458932,28.0082065 64.3183111,28.0082065 L61.6410993,28.0082065 C65.0196993,25.1662638 66.3149556,20.4067125 64.8728783,16.1327056 C63.4308011,11.8586986 59.5650985,9 55.227609,9 C50.8901194,9 47.0244168,11.8586986 45.5823396,16.1327056 C44.1402623,20.4067125 45.4355187,25.1662638 48.8141186,28.0082065 L46.1369068,28.0082065 C45.5093248,28.0082065 45.000569,28.5397535 45.000569,29.19545 L45.000569,36.3189113 C45.000569,36.9746078 45.5093248,37.5061549 46.1369068,37.5061549 L49.5459201,37.5061549 L49.5459201,42.2551291 L46.1369068,42.2551291 C45.5093248,42.2551291 45.000569,42.7866761 45.000569,43.4423726 L45.000569,50.5658339 C45.000569,51.2215304 45.5093248,51.7530774 46.1369068,51.7530774 L49.5459201,51.7530774 L49.5459201,64.8127565 C49.5459201,65.468453 50.0546758,66 50.6822579,66 L68.8636622,66 C69.4912442,66 70,65.468453 70,64.8127565 L70,50.5658339 C70,49.9101374 69.4912442,49.3785903 68.8636622,49.3785903 L65.4546489,49.3785903 L65.4546489,44.6296161 L68.8636622,44.6296161 C69.4912442,44.6296161 70,44.0980691 70,43.4423726 L70,36.3189113 C70,35.6632148 69.4912442,35.1316678 68.8636622,35.1316678 Z M47.2732446,19.6975016 C47.2732446,15.1076261 50.8345348,11.3867968 55.227609,11.3867968 C59.6206831,11.3867968 63.1819734,15.1076261 63.1819734,19.6975016 C63.1819734,24.2873772 59.6206831,28.0082065 55.227609,28.0082065 C50.8366116,28.0029724 47.2782543,24.2852074 47.2732446,19.6975016 Z M47.2732446,30.3826936 L63.1819734,30.3826936 L63.1819734,35.1316678 L60.9092978,35.1316678 L60.9092978,32.7571807 L58.6366223,32.7571807 L58.6366223,35.1316678 L56.3639467,35.1316678 L56.3639467,32.7571807 L54.0912712,32.7571807 L54.0912712,35.1316678 L51.8185956,35.1316678 L51.8185956,32.7571807 L49.5459201,32.7571807 L49.5459201,35.1316678 L47.2732446,35.1316678 L47.2732446,30.3826936 Z M67.7273245,63.6255129 L65.4546489,63.6255129 L65.4546489,61.2510258 L63.1819734,61.2510258 L63.1819734,63.6255129 L60.9092978,63.6255129 L60.9092978,61.2510258 L58.6366223,61.2510258 L58.6366223,63.6255129 L56.3639467,63.6255129 L56.3639467,61.2510258 L54.0912712,61.2510258 L54.0912712,63.6255129 L51.8185956,63.6255129 L51.8185956,58.8765387 L67.7273245,58.8765387 L67.7273245,63.6255129 Z M67.7273245,56.5020516 L65.4546489,56.5020516 L65.4546489,54.1275645 L63.1819734,54.1275645 L63.1819734,56.5020516 L60.9092978,56.5020516 L60.9092978,54.1275645 L58.6366223,54.1275645 L58.6366223,56.5020516 L56.3639467,56.5020516 L56.3639467,54.1275645 L54.0912712,54.1275645 L54.0912712,56.5020516 L51.8185956,56.5020516 L51.8185956,51.7530774 L67.7273245,51.7530774 L67.7273245,56.5020516 Z M63.1819734,49.3785903 L60.9092978,49.3785903 L60.9092978,47.0041032 L58.6366223,47.0041032 L58.6366223,49.3785903 L56.3639467,49.3785903 L56.3639467,47.0041032 L54.0912712,47.0041032 L54.0912712,49.3785903 L51.8185956,49.3785903 L51.8185956,47.0041032 L49.5459201,47.0041032 L49.5459201,49.3785903 L47.2732446,49.3785903 L47.2732446,44.6296161 L63.1819734,44.6296161 L63.1819734,49.3785903 Z M67.7273245,42.2551291 L65.4546489,42.2551291 L65.4546489,39.880642 L63.1819734,39.880642 L63.1819734,42.2551291 L60.9092978,42.2551291 L60.9092978,39.880642 L58.6366223,39.880642 L58.6366223,42.2551291 L56.3639467,42.2551291 L56.3639467,39.880642 L54.0912712,39.880642 L54.0912712,42.2551291 L51.8185956,42.2551291 L51.8185956,37.5061549 L67.7273245,37.5061549 L67.7273245,42.2551291 Z" id="Shape"></path>
                    <path d="M55,14 C51.6879362,14.0039673 49.0039673,16.6879362 49,20 L51.4,20 C51.4,18.0117749 53.0117749,16.4 55,16.4 L55,14 Z" id="Shape"></path>
                    <path d="M58.6,20 C58.6,21.9882251 56.9882251,23.6 55,23.6 L55,26 C58.3120638,25.9960327 60.9960327,23.3120638 61,20 L58.6,20 Z" id="Shape"></path>
                    <path d="M20.5696,49.6666667 L20.8,49.6666667 L20.8,52 L23.2,52 L23.2,49.6666667 L23.4304,49.6666667 C25.7340589,49.6615506 27.6735905,47.9901092 27.9552723,45.767241 C28.2369542,43.5443729 26.7726963,41.4652331 24.5392,40.9166667 L20.044,39.8246667 C18.9762529,39.5702118 18.273023,38.5795267 18.4071202,37.5186894 C18.5412173,36.4578521 19.4702536,35.6621932 20.5696,35.6666667 L23.4304,35.6666667 C24.6280887,35.6679526 25.5986773,36.6115804 25.6,37.776 L25.6,38 L28,38 L28,37.776 C27.9973544,35.3234492 25.9530237,33.3359055 23.4304,33.3333333 L23.2,33.3333333 L23.2,31 L20.8,31 L20.8,33.3333333 L20.5696,33.3333333 C18.2659411,33.3384494 16.3264095,35.0098908 16.0447277,37.232759 C15.7630458,39.4556271 17.2273037,41.5347669 19.4608,42.0833333 L23.956,43.1753333 C25.0237471,43.4297882 25.726977,44.4204733 25.5928798,45.4813106 C25.4587827,46.5421479 24.5297464,47.3378068 23.4304,47.3333333 L20.5696,47.3333333 C19.3719113,47.3320474 18.4013227,46.3884196 18.4,45.224 L18.4,45 L16,45 L16,45.224 C16.0026456,47.6765508 18.0469763,49.6640945 20.5696,49.6666667 Z" id="Shape"></path>
                </g>
            </g>
        </g>
    </g>
</svg>