<?xml version="1.0" encoding="UTF-8"?>
<svg width="164px" height="164px" viewBox="0 0 164 164" version="1.1" xmlns="http://www.w3.org/2000/svg" xmlns:xlink="http://www.w3.org/1999/xlink">
    <!-- Generator: sketchtool 51.3 (57544) - http://www.bohemiancoding.com/sketch -->
    <title>899D3B64-EBA8-4622-A6B6-BFFBE221A307</title>
    <desc>Created with sketchtool.</desc>
    <defs></defs>
    <g id="Page-1" stroke="none" stroke-width="1" fill="none" fill-rule="evenodd">
        <g id="Site-V2" transform="translate(-494.000000, -1498.000000)" fill-rule="nonzero">
            <g id="Icon_Stats" transform="translate(496.000000, 1500.000000)">
                <circle id="Oval-2" stroke="#FFF6CE" stroke-width="3" fill="#FFFFFF" cx="80" cy="80" r="80"></circle>
                <g id="noun_stats_311721" transform="translate(20.000000, 24.000000)">
                    <g id="Group-3">
                        <path d="M99.111,5.555 C99.111,3.043 97.067,1 94.555,1 C92.043,1 90,3.044 90,5.555 C90,8.068 92.044,10.111 94.555,10.111 C97.067,10.111 99.111,8.067 99.111,5.555 Z M91.882,5.555 C91.882,4.081 93.081,2.883 94.554,2.883 C96.027,2.883 97.227,4.082 97.227,5.555 C97.227,7.028 96.027,8.228 94.554,8.228 C93.081,8.228 91.882,7.029 91.882,5.555 Z" id="Shape" fill="#111111"></path>
                        <path d="M9.111,46.555 C9.111,44.043 7.067,42 4.555,42 C2.043,42 0,44.044 0,46.555 C0,49.068 2.044,51.111 4.555,51.111 C7.067,51.111 9.111,49.067 9.111,46.555 Z M1.882,46.555 C1.882,45.081 3.081,43.883 4.554,43.883 C6.027,43.883 7.227,45.082 7.227,46.555 C7.227,48.028 6.027,49.228 4.554,49.228 C3.081,49.228 1.882,48.029 1.882,46.555 Z" id="Shape-Copy-5" fill="#111111"></path>
                        <path d="M109.883177,56.6609023 C109.622177,56.6719023 109.379177,56.7829023 109.202177,56.9759023 C109.025177,57.1689023 108.933177,57.4179023 108.944177,57.6799023 C108.965177,58.2069023 109.395177,58.6199023 109.922177,58.6199023 C110.978177,58.5769023 111.918177,58.1429023 112.609177,57.3939023 C113.301177,56.6449023 113.659177,55.6739023 113.618177,54.6589023 C113.577177,53.6429023 113.142177,52.7029023 112.394177,52.0109023 C111.644177,51.3189023 110.651177,50.9639023 109.655177,51.0029023 L109.654177,51.0029023 C108.637177,51.0439023 107.698177,51.4779023 107.008177,52.2259023 C106.319177,52.9749023 105.962177,53.9479023 106.003177,54.9669023 C106.026177,55.5099023 106.483177,55.9419023 107.023177,55.9049023 C107.282177,55.8949023 107.524177,55.7829023 107.701177,55.5909023 C107.879177,55.3979023 107.971177,55.1479023 107.960177,54.8869023 C107.939177,54.3909023 108.113177,53.9179023 108.449177,53.5539023 C108.783177,53.1909023 109.239177,52.9799023 109.733177,52.9599023 C109.756177,52.9589023 109.778177,52.9589023 109.801177,52.9589023 C110.794177,52.9589023 111.620177,53.7439023 111.660177,54.7379023 C111.681177,55.2299023 111.507177,55.7009023 111.170177,56.0659023 C110.836177,56.4309023 110.378177,56.6409023 109.883177,56.6609023 Z" id="Shape" fill="#FFC12F"></path>
                        <g id="Group-4" transform="translate(83.000000, 104.000000)" fill="#111111">
                            <path d="M5.979,0 C5.439,0 5,0.44 5,0.98 L5,3.235 C5,3.775 5.439,4.215 5.979,4.215 C6.519,4.215 6.959,3.775 6.959,3.235 L6.959,0.98 C6.959,0.44 6.519,0 5.979,0 Z" id="Shape"></path>
                            <path d="M5.979,7 C5.439,7 5,7.439 5,7.979 L5,10.235 C5,10.775 5.439,11.214 5.979,11.214 C6.519,11.214 6.959,10.775 6.959,10.235 L6.959,7.979 C6.959,7.439 6.519,7 5.979,7 Z" id="Shape"></path>
                            <path d="M10.235,5 L7.98,5 C7.44,5 7,5.44 7,5.98 C7,6.52 7.44,6.959 7.98,6.959 L10.235,6.959 C10.775,6.959 11.215,6.52 11.215,5.98 C11.215,5.44 10.775,5 10.235,5 Z" id="Shape"></path>
                            <path d="M0.98,5 C0.44,5 0,5.44 0,5.98 C0,6.52 0.44,6.959 0.98,6.959 L3.235,6.959 C3.775,6.959 4.215,6.52 4.215,5.98 C4.215,5.44 3.775,5 3.235,5 L0.98,5 Z" id="Shape"></path>
                        </g>
                        <g id="Group-5" transform="translate(14.000000, 87.000000)" fill="#111111">
                            <path d="M5.979,0 C5.439,0 5,0.44 5,0.98 L5,3.235 C5,3.775 5.439,4.215 5.979,4.215 C6.519,4.215 6.959,3.775 6.959,3.235 L6.959,0.98 C6.959,0.44 6.519,0 5.979,0 Z" id="Shape-Copy"></path>
                            <path d="M5.979,7 C5.439,7 5,7.439 5,7.979 L5,10.235 C5,10.775 5.439,11.214 5.979,11.214 C6.519,11.214 6.959,10.775 6.959,10.235 L6.959,7.979 C6.959,7.439 6.519,7 5.979,7 Z" id="Shape-Copy-2"></path>
                            <path d="M10.235,5 L7.98,5 C7.44,5 7,5.44 7,5.98 C7,6.52 7.44,6.959 7.98,6.959 L10.235,6.959 C10.775,6.959 11.215,6.52 11.215,5.98 C11.215,5.44 10.775,5 10.235,5 Z" id="Shape-Copy-3"></path>
                            <path d="M0.98,5 C0.44,5 0,5.44 0,5.98 C0,6.52 0.44,6.959 0.98,6.959 L3.235,6.959 C3.775,6.959 4.215,6.52 4.215,5.98 C4.215,5.44 3.775,5 3.235,5 L0.98,5 Z" id="Shape-Copy-4"></path>
                        </g>
                        <g id="Group-6" transform="translate(38.000000, 0.000000)" fill="#FFC12F">
                            <path d="M7.6,0.993 L6.005,2.588 C5.623,2.97 5.623,3.591 6.005,3.973 C6.373,4.343 7.02,4.345 7.39,3.973 L8.985,2.378 C9.367,1.996 9.367,1.375 8.985,0.993 C8.794,0.802 8.543,0.707 8.292,0.707 C8.042,0.707 7.79,0.802 7.6,0.993 Z" id="Shape"></path>
                            <path d="M2.4,8.964 L3.995,7.369 C4.181,7.184 4.283,6.938 4.283,6.676 C4.283,6.415 4.181,6.169 3.995,5.984 C3.804,5.793 3.553,5.698 3.303,5.698 C3.052,5.698 2.8,5.793 2.61,5.984 L1.015,7.579 C0.633,7.961 0.633,8.582 1.015,8.964 C1.385,9.335 2.03,9.334 2.4,8.964 Z" id="Shape"></path>
                            <path d="M7.6,8.964 C7.968,9.335 8.615,9.335 8.985,8.964 C9.367,8.582 9.367,7.961 8.985,7.579 L7.39,5.984 C7.199,5.793 6.948,5.698 6.697,5.698 C6.447,5.698 6.195,5.793 6.005,5.984 C5.623,6.366 5.623,6.987 6.005,7.369 L7.6,8.964 Z" id="Shape"></path>
                            <path d="M2.609,3.974 C2.991,4.356 3.614,4.354 3.994,3.974 C4.376,3.592 4.376,2.97 3.994,2.588 L2.4,0.993 C2.209,0.802 1.958,0.707 1.708,0.707 C1.457,0.707 1.205,0.802 1.015,0.993 C0.633,1.375 0.633,1.996 1.015,2.378 L2.609,3.974 Z" id="Shape"></path>
                        </g>
                    </g>
                </g>
            </g>
        </g>
    </g>
</svg>