<?xml version="1.0" encoding="UTF-8"?>
<svg width="200px" height="200px" viewBox="0 0 200 200" version="1.1" xmlns="http://www.w3.org/2000/svg" xmlns:xlink="http://www.w3.org/1999/xlink">
    <!-- Generator: sketchtool 51.3 (57544) - http://www.bohemiancoding.com/sketch -->
    <title>8AF4B5B0-51DF-4F90-95D3-2B50F69381C5</title>
    <desc>Created with sketchtool.</desc>
    <defs></defs>
    <g id="Symbols" stroke="none" stroke-width="1" fill="none" fill-rule="evenodd">
        <g id="IconMoney" fill-rule="nonzero">
            <g id="Icon_Money" transform="translate(11.000000, 20.000000)">
                <path d="M7.66549665,17.2688944 L0.741758724,123.607643 C0.382924786,129.118821 4.55972489,133.877406 10.0709029,134.23624 C10.5104224,134.264857 10.9513524,134.264405 11.3908124,134.234887 L162.628144,124.076376 C168.138574,123.706244 172.30561,118.939106 171.935478,113.428675 C171.727227,110.328291 170.089539,107.50089 167.503812,105.777589 L23.1902184,9.59735073 C18.5945079,6.53446165 12.3859862,7.77705892 9.32309716,12.3727694 C8.35101283,13.8313329 7.77938156,15.5197844 7.66549665,17.2688944 Z" id="Path-7" fill="#FFF6CE"></path>
                <circle id="Oval-2-Copy" stroke="#FFF6CE" stroke-width="3" fill="#FFFFFF" cx="89" cy="80" r="80"></circle>
                <path d="M81.203125,88.3842773 C81.203125,88.3842773 96.5507812,92.5724284 127.246094,100.94873 L128.807617,95.4453125 L82.9038086,83.1889648 C81.7700195,86.6525065 81.203125,88.3842773 81.203125,88.3842773 Z" id="Path-3" fill-opacity="0.5" fill="#FFC12F"></path>
                <polygon id="Path-5" fill-opacity="0.5" fill="#FFC12F" points="94.2988281 72.3999023 113.379883 63.3007812 114.265137 61.1020508 109.581055 52.1108398 106.420898 52.1108398 89 61.1020508 88.2675781 63.3007812 92.4179688 71.3725586"></polygon>
                <path d="M109.631348,106.850586 L110.96582,110.270996 L113.255371,110.270996 L115.49707,111.520996 C116.812174,111.520996 117.469727,111.520996 117.469727,111.520996 C117.469727,111.520996 118.783203,109.472168 118.783203,108.531738 C118.783203,107.904785 118.114095,107.008464 116.775879,105.842773 L114.207275,105.842773 L112.459961,104.437012 L109.631348,106.850586 Z" id="Path-4" fill-opacity="0.5" fill="#FFC12F"></path>
                <circle id="Oval-5" fill="#FFC12F" cx="61.5" cy="108.5" r="11.5"></circle>
                <g id="noun_Wallet_1073173" transform="translate(48.000000, 39.000000)" fill="#111111">
                    <path d="M15.9,68.1 C15.1,68 14.4,68.1 13.7,68.5 L11.3,65.4 C11.5,65.4 11.7,65.4 11.9,65.4 C12.4,65.5 12.9,65.7 13.3,66.2 C13.6,66.6 14.3,66.7 14.7,66.4 C15.1,66.1 15.2,65.4 14.9,65 C14.2,64.1 13.3,63.6 12.2,63.5 C11.5,63.4 10.7,63.5 10.1,63.8 L9.8,63.4 C9.5,63 8.8,62.9 8.4,63.2 C8,63.5 7.9,64.2 8.2,64.6 L8.5,65 C8.1,65.6 7.8,66.2 7.7,67 C7.6,68.1 7.9,69.1 8.5,70 C9.2,70.9 10.1,71.4 11.2,71.5 C11.9,71.6 12.7,71.5 13.3,71.2 L15.7,74.3 C15,74.4 14.4,74.1 13.9,73.5 C13.6,73.1 12.9,73 12.5,73.3 C12.1,73.6 12,74.3 12.3,74.7 C13.1,75.7 14.3,76.3 15.5,76.3 C16,76.3 16.5,76.2 17,76 L17.3,76.4 C17.5,76.7 17.8,76.8 18.1,76.8 C18.3,76.8 18.5,76.7 18.7,76.6 C19.1,76.3 19.2,75.6 18.9,75.2 L18.6,74.9 C19.1,74.3 19.4,73.6 19.5,72.8 C19.6,71.7 19.3,70.7 18.7,69.8 C17.9,68.8 17,68.3 15.9,68.1 Z M11.3,69.4 C10.8,69.3 10.3,69.1 9.9,68.6 C9.6,68.2 9.4,67.6 9.5,67.1 C9.5,66.9 9.6,66.7 9.7,66.6 L11.9,69.4 C11.7,69.4 11.5,69.4 11.3,69.4 Z M14.9,70.1 C15.1,70.1 15.4,70 15.6,70.1 C16.1,70.2 16.6,70.4 17,70.9 C17.3,71.3 17.5,71.9 17.4,72.4 C17.4,72.6 17.3,72.9 17.2,73.1 L14.9,70.1 Z" id="Shape"></path>
                    <path d="M47,22.5 C46.2,22.9 45.6,23.6 45.3,24.4 C45,25.2 45.1,26.1 45.5,26.9 C45.9,27.7 46.5,28.3 47.4,28.6 C47.7,28.7 48.1,28.8 48.5,28.8 C49,28.8 49.5,28.7 49.9,28.5 C50.7,28.1 51.3,27.4 51.6,26.6 C51.9,25.8 51.8,24.9 51.4,24.1 C50.5,22.4 48.6,21.7 47,22.5 Z M48.9,26.6 C48.6,26.8 48.3,26.8 47.9,26.7 C47.5,26.6 47.3,26.4 47.2,26.1 C47.1,25.8 47,25.5 47.1,25.1 C47.2,24.7 47.4,24.5 47.7,24.4 C47.9,24.3 48.1,24.3 48.3,24.3 C48.8,24.3 49.2,24.6 49.4,25 C49.8,25.5 49.6,26.3 48.9,26.6 Z" id="Shape"></path>
                    <path d="M8.4,25.6 L6.5,26.5 C6,26.7 5.8,27.3 6,27.8 C6.2,28.2 6.5,28.4 6.9,28.4 C7,28.4 7.2,28.4 7.3,28.3 L9.2,27.4 C9.7,27.2 9.9,26.6 9.7,26.1 C9.5,25.6 8.9,25.3 8.4,25.6 Z" id="Shape"></path>
                    <path d="M13.5,23.1 L11.6,24 C11.1,24.2 10.9,24.8 11.1,25.3 C11.3,25.7 11.6,25.9 12,25.9 C12.1,25.9 12.3,25.9 12.4,25.8 L14.3,24.9 C14.8,24.7 15,24.1 14.8,23.6 C14.6,23 14,22.8 13.5,23.1 Z" id="Shape"></path>
                    <path d="M18.6,20.6 L16.7,21.5 C16.2,21.7 16,22.3 16.2,22.8 C16.4,23.2 16.7,23.4 17.1,23.4 C17.2,23.4 17.4,23.4 17.5,23.3 L19.4,22.4 C19.9,22.2 20.1,21.6 19.9,21.1 C19.7,20.6 19.1,20.3 18.6,20.6 Z" id="Shape"></path>
                    <path d="M23.7,18.1 L21.8,19 C21.3,19.2 21.1,19.8 21.3,20.3 C21.5,20.7 21.8,20.9 22.2,20.9 C22.3,20.9 22.5,20.9 22.6,20.8 L24.5,19.9 C25,19.7 25.2,19.1 25,18.6 C24.8,18 24.2,17.8 23.7,18.1 Z" id="Shape"></path>
                    <path d="M28.8,15.6 L26.9,16.5 C26.4,16.7 26.2,17.3 26.4,17.8 C26.6,18.2 26.9,18.4 27.3,18.4 C27.4,18.4 27.6,18.4 27.7,18.3 L29.6,17.4 C30.1,17.2 30.3,16.6 30.1,16.1 C29.9,15.5 29.3,15.3 28.8,15.6 Z" id="Shape"></path>
                    <path d="M35.3,13.5 C35.1,13 34.5,12.8 34,13 L32,14 C31.5,14.2 31.3,14.8 31.5,15.3 C31.7,15.7 32,15.9 32.4,15.9 C32.5,15.9 32.7,15.9 32.8,15.8 L34.7,14.9 C35.3,14.6 35.5,14 35.3,13.5 Z" id="Shape"></path>
                    <path d="M37.6,13.4 C37.7,13.4 37.9,13.4 38,13.3 L39.9,12.4 C40.4,12.2 40.6,11.6 40.4,11.1 C40.2,10.6 39.6,10.4 39.1,10.6 L37.2,11.5 C36.7,11.7 36.5,12.3 36.7,12.8 C36.8,13.2 37.2,13.4 37.6,13.4 Z" id="Shape"></path>
                    <path d="M42.7,10.9 C42.8,10.9 43,10.9 43.1,10.8 L45,9.9 C45.5,9.7 45.7,9.1 45.5,8.6 C45.3,8.1 44.7,7.9 44.2,8.1 L42.2,9 C41.7,9.2 41.5,9.8 41.7,10.3 C41.9,10.7 42.3,10.9 42.7,10.9 Z" id="Shape"></path>
                    <path d="M47.8,8.4 C47.9,8.4 48.1,8.4 48.2,8.3 L50.1,7.4 C50.6,7.2 50.8,6.6 50.6,6.1 C50.4,5.6 49.8,5.4 49.3,5.6 L47.4,6.5 C46.9,6.7 46.7,7.3 46.9,7.8 C47,8.2 47.4,8.4 47.8,8.4 Z" id="Shape"></path>
                    <path d="M23.1,55.6 L21.2,56.5 C20.7,56.7 20.5,57.3 20.7,57.8 C20.9,58.2 21.2,58.4 21.6,58.4 C21.7,58.4 21.9,58.4 22,58.3 L23.9,57.4 C24.4,57.2 24.6,56.6 24.4,56.1 C24.2,55.6 23.6,55.4 23.1,55.6 Z" id="Shape"></path>
                    <path d="M28.2,53.1 L26.3,54 C25.8,54.2 25.6,54.8 25.8,55.3 C26,55.7 26.3,55.9 26.7,55.9 C26.8,55.9 27,55.9 27.1,55.8 L29,54.9 C29.5,54.7 29.7,54.1 29.5,53.6 C29.3,53.1 28.7,52.9 28.2,53.1 Z" id="Shape"></path>
                    <path d="M57.4,41 C57.5,41 57.7,41 57.8,40.9 L59.7,40 C60.2,39.8 60.4,39.2 60.2,38.7 C60,38.2 59.4,38 58.9,38.2 L57,39.1 C56.5,39.3 56.3,39.9 56.5,40.4 C56.7,40.7 57,41 57.4,41 Z" id="Shape"></path>
                    <path d="M62.5,38.4 C62.6,38.4 62.8,38.4 62.9,38.3 L64.8,37.4 C65.3,37.2 65.5,36.6 65.3,36.1 C65.1,35.6 64.5,35.4 64,35.6 L62.1,36.5 C61.6,36.7 61.4,37.3 61.6,37.8 C61.8,38.2 62.1,38.4 62.5,38.4 Z" id="Shape"></path>
                    <path d="M78.6,49.1 L61.7,44.5 L67.9,41.3 C69,40.7 69.9,39.8 70.3,38.5 C70.7,37.3 70.6,36 70.1,34.8 L65.3,25.1 L65.7,24.9 C66.4,24.6 66.9,24 67.1,23.3 C67.3,22.6 67.3,21.8 67,21.2 L63,13.3 C62.7,12.6 62.1,12.1 61.4,11.9 C60.7,11.7 59.9,11.7 59.3,12 L58.9,12.2 L54.5,3.2 C53.9,2.1 53,1.2 51.7,0.8 C50.5,0.4 49.2,0.5 48,1 L3.9,22.7 C2.8,23.3 1.9,24.2 1.5,25.5 C1.1,26.7 1.2,28 1.7,29.2 L15.3,57 C11.9,56.5 8.4,57.3 5.5,59.5 C-0.1,63.8 -1.1,71.9 3.2,77.5 C5.3,80.2 8.3,81.9 11.7,82.4 C12.3,82.5 12.8,82.5 13.4,82.5 C16.2,82.5 19,81.6 21.2,79.8 C23.9,77.7 25.6,74.7 26.1,71.3 C26.5,68.4 25.8,65.5 24.3,63 L29.3,60.5 L28.5,63 C27.8,65.7 29.4,68.6 32.1,69.3 L70.3,79.7 C70.7,79.8 71.2,79.9 71.7,79.9 C72.6,79.9 73.5,79.7 74.3,79.2 C75.5,78.5 76.4,77.4 76.7,76.1 L82.3,55.5 C82.7,54.2 82.5,52.8 81.8,51.6 C81.1,50.4 80,49.5 78.6,49.1 Z M80,52.5 C80.4,53.2 80.5,54.1 80.3,54.9 L80.2,55.2 L35.9,43.2 L36,42.9 C36.4,41.5 37.7,40.6 39.1,40.6 C39.4,40.6 39.7,40.6 39.9,40.7 L78.1,51.1 C78.9,51.3 79.6,51.8 80,52.5 Z M35.4,45.1 L79.7,57.1 L78.7,60.6 L34.4,48.6 L35.4,45.1 Z M60.5,13.7 C60.6,13.7 60.7,13.7 60.8,13.7 C61,13.8 61.2,13.9 61.3,14.1 L65.2,22.2 C65.3,22.4 65.3,22.6 65.2,22.8 C65.1,23 65,23.2 64.8,23.3 L63.5,23.9 C63.5,23.9 63.5,23.9 63.5,23.9 C63.5,23.9 63.5,23.9 63.5,23.9 L46.4,32.3 C46.4,32.3 46.4,32.3 46.4,32.3 C46.2,32.4 46,32.4 45.8,32.3 C45.6,32.2 45.4,32.1 45.3,31.9 L41.4,23.8 C41.3,23.6 41.3,23.4 41.4,23.2 C41.5,23 41.6,22.8 41.8,22.7 L58.9,14.3 C58.9,14.3 58.9,14.3 58.9,14.3 C58.9,14.3 58.9,14.3 58.9,14.3 L60.2,13.7 C60.3,13.7 60.4,13.7 60.5,13.7 Z M24,70.9 C23.6,73.8 22.2,76.3 19.9,78.1 C17.6,79.9 14.8,80.6 11.9,80.3 C9,79.9 6.5,78.5 4.7,76.2 C1,71.5 1.9,64.7 6.6,61 C8.6,59.5 10.9,58.7 13.2,58.7 C16.4,58.7 19.6,60.1 21.8,62.9 C23.6,65.2 24.4,68 24,70.9 Z M23,61.2 C21.6,59.5 19.8,58.3 17.8,57.6 L3.5,28.2 C3.2,27.5 3.1,26.8 3.4,26.1 C3.7,25.4 4.1,24.8 4.8,24.5 L49,2.8 C49.7,2.5 50.4,2.4 51.1,2.7 C51.8,2.9 52.4,3.4 52.7,4.1 L57.1,13.1 L41,21 C40.3,21.3 39.8,21.9 39.6,22.6 C39.4,23.3 39.4,24.1 39.7,24.7 L43.6,32.8 C43.9,33.5 44.5,34 45.2,34.2 C45.5,34.3 45.8,34.4 46.1,34.4 C46.5,34.4 46.9,34.3 47.3,34.1 L63.5,26.2 L68.3,35.9 C68.6,36.6 68.7,37.3 68.4,38 C68.2,38.7 67.7,39.3 67,39.6 L58.8,43.8 L54.3,42.6 L54.6,42.5 C55.1,42.3 55.3,41.7 55.1,41.2 C54.9,40.7 54.3,40.5 53.8,40.7 L51.9,41.6 C51.8,41.7 51.7,41.7 51.6,41.8 L40.5,38.8 C37.7,38 34.9,39.7 34.2,42.4 L30,57.7 L23,61.2 Z M74.7,75.6 C74.5,76.4 74,77.1 73.2,77.5 C72.5,77.9 71.6,78 70.8,77.8 L32.6,67.4 C31,67 30,65.2 30.4,63.5 L33.9,50.5 L78.2,62.5 L74.7,75.6 Z" id="Shape"></path>
                    <path d="M38.9,60.6 L36.8,60 C36.3,59.9 35.7,60.2 35.6,60.7 C35.5,61.2 35.8,61.8 36.3,61.9 L38.4,62.5 C38.5,62.5 38.6,62.5 38.7,62.5 C39.1,62.5 39.5,62.2 39.7,61.8 C39.7,61.3 39.4,60.7 38.9,60.6 Z" id="Shape"></path>
                    <path d="M44,62 L41.9,61.4 C41.4,61.3 40.8,61.6 40.7,62.1 C40.6,62.6 40.9,63.2 41.4,63.3 L43.5,63.9 C43.6,63.9 43.7,63.9 43.8,63.9 C44.2,63.9 44.6,63.6 44.8,63.2 C44.8,62.7 44.5,62.1 44,62 Z" id="Shape"></path>
                    <path d="M49,63.3 L47,62.8 C46.5,62.7 45.9,63 45.8,63.5 C45.7,64 46,64.6 46.5,64.7 L48.6,65.3 C48.7,65.3 48.8,65.3 48.9,65.3 C49.3,65.3 49.7,65 49.9,64.6 C49.9,64 49.6,63.5 49,63.3 Z" id="Shape"></path>
                    <path d="M54.1,64.7 L52,64.2 C51.5,64.1 50.9,64.4 50.8,64.9 C50.7,65.4 51,66 51.5,66.1 L53.6,66.7 C53.7,66.7 53.8,66.7 53.9,66.7 C54.3,66.7 54.7,66.4 54.9,66 C54.9,65.4 54.6,64.9 54.1,64.7 Z" id="Shape"></path>
                    <path d="M68.9,65.7 C68.4,65.6 67.9,65.5 67.4,65.6 C67,65.2 66.6,65 66,64.9 C63.9,64.3 61.7,65.6 61.1,67.7 C60.8,68.7 61,69.8 61.5,70.7 C62,71.6 62.9,72.3 63.9,72.6 C64.2,72.7 64.6,72.7 64.9,72.7 C65.1,72.7 65.2,72.7 65.4,72.7 C65.8,73 66.3,73.2 66.8,73.4 C67.1,73.5 67.5,73.5 67.8,73.5 C69.6,73.5 71.2,72.3 71.7,70.6 C72.3,68.4 71.1,66.2 68.9,65.7 Z M66.9,69.2 C66.8,69.7 66.5,70.1 66.1,70.3 C65.9,70 65.8,69.5 66,69 C66.1,68.5 66.4,68.1 66.8,67.9 C67,68.3 67.1,68.8 66.9,69.2 Z M63.1,68.2 C63.3,67.3 64.1,66.7 65,66.7 C65,66.7 65,66.7 65,66.7 C64.5,67.2 64.2,67.7 64,68.4 C63.8,69.1 63.8,69.8 64,70.4 C63.3,70 62.8,69.1 63.1,68.2 Z M69.8,70 C69.6,70.9 68.7,71.5 67.9,71.5 C68.4,71 68.7,70.4 68.9,69.8 C69.1,69.1 69.1,68.4 68.9,67.8 C69.6,68.2 70.1,69.1 69.8,70 Z" id="Shape"></path>
                </g>
                <path d="M147.111,76.555 C147.111,74.043 145.067,72 142.555,72 C140.043,72 138,74.044 138,76.555 C138,79.068 140.044,81.111 142.555,81.111 C145.067,81.111 147.111,79.067 147.111,76.555 Z M139.882,76.555 C139.882,75.081 141.081,73.883 142.554,73.883 C144.027,73.883 145.227,75.082 145.227,76.555 C145.227,78.028 144.027,79.228 142.554,79.228 C141.081,79.228 139.882,78.029 139.882,76.555 Z" id="Shape" fill="#111111"></path>
                <path d="M40.111,82.555 C40.111,80.043 38.067,78 35.555,78 C33.043,78 31,80.044 31,82.555 C31,85.068 33.044,87.111 35.555,87.111 C38.067,87.111 40.111,85.067 40.111,82.555 Z M32.882,82.555 C32.882,81.081 34.081,79.883 35.554,79.883 C37.027,79.883 38.227,81.082 38.227,82.555 C38.227,84.028 37.027,85.228 35.554,85.228 C34.081,85.228 32.882,84.029 32.882,82.555 Z" id="Shape-Copy-5" fill="#111111"></path>
                <path d="M76.8831768,23.6609023 C76.6221768,23.6719023 76.3791768,23.7829023 76.2021768,23.9759023 C76.0251768,24.1689023 75.9331768,24.4179023 75.9441768,24.6799023 C75.9651768,25.2069023 76.3951768,25.6199023 76.9221768,25.6199023 C77.9781768,25.5769023 78.9181768,25.1429023 79.6091768,24.3939023 C80.3011768,23.6449023 80.6591768,22.6739023 80.6181768,21.6589023 C80.5771768,20.6429023 80.1421768,19.7029023 79.3941768,19.0109023 C78.6441768,18.3189023 77.6511768,17.9639023 76.6551768,18.0029023 L76.6541768,18.0029023 C75.6371768,18.0439023 74.6981768,18.4779023 74.0081768,19.2259023 C73.3191768,19.9749023 72.9621768,20.9479023 73.0031768,21.9669023 C73.0261768,22.5099023 73.4831768,22.9419023 74.0231768,22.9049023 C74.2821768,22.8949023 74.5241768,22.7829023 74.7011768,22.5909023 C74.8791768,22.3979023 74.9711768,22.1479023 74.9601768,21.8869023 C74.9391768,21.3909023 75.1131768,20.9179023 75.4491768,20.5539023 C75.7831768,20.1909023 76.2391768,19.9799023 76.7331768,19.9599023 C76.7561768,19.9589023 76.7781768,19.9589023 76.8011768,19.9589023 C77.7941768,19.9589023 78.6201768,20.7439023 78.6601768,21.7379023 C78.6811768,22.2299023 78.5071768,22.7009023 78.1701768,23.0659023 C77.8361768,23.4309023 77.3781768,23.6409023 76.8831768,23.6609023 Z" id="Shape" fill="#FFC12F"></path>
                <g id="Group-4" transform="translate(89.000000, 124.000000)" fill="#111111">
                    <path d="M5.979,0 C5.439,0 5,0.44 5,0.98 L5,3.235 C5,3.775 5.439,4.215 5.979,4.215 C6.519,4.215 6.959,3.775 6.959,3.235 L6.959,0.98 C6.959,0.44 6.519,0 5.979,0 Z" id="Shape"></path>
                    <path d="M5.979,7 C5.439,7 5,7.439 5,7.979 L5,10.235 C5,10.775 5.439,11.214 5.979,11.214 C6.519,11.214 6.959,10.775 6.959,10.235 L6.959,7.979 C6.959,7.439 6.519,7 5.979,7 Z" id="Shape"></path>
                    <path d="M10.235,5 L7.98,5 C7.44,5 7,5.44 7,5.98 C7,6.52 7.44,6.959 7.98,6.959 L10.235,6.959 C10.775,6.959 11.215,6.52 11.215,5.98 C11.215,5.44 10.775,5 10.235,5 Z" id="Shape"></path>
                    <path d="M0.98,5 C0.44,5 0,5.44 0,5.98 C0,6.52 0.44,6.959 0.98,6.959 L3.235,6.959 C3.775,6.959 4.215,6.52 4.215,5.98 C4.215,5.44 3.775,5 3.235,5 L0.98,5 Z" id="Shape"></path>
                </g>
                <g id="Group-4-Copy" transform="translate(48.000000, 32.000000)" fill="#111111">
                    <path d="M5.979,0 C5.439,0 5,0.44 5,0.98 L5,3.235 C5,3.775 5.439,4.215 5.979,4.215 C6.519,4.215 6.959,3.775 6.959,3.235 L6.959,0.98 C6.959,0.44 6.519,0 5.979,0 Z" id="Shape"></path>
                    <path d="M5.979,7 C5.439,7 5,7.439 5,7.979 L5,10.235 C5,10.775 5.439,11.214 5.979,11.214 C6.519,11.214 6.959,10.775 6.959,10.235 L6.959,7.979 C6.959,7.439 6.519,7 5.979,7 Z" id="Shape"></path>
                    <path d="M10.235,5 L7.98,5 C7.44,5 7,5.44 7,5.98 C7,6.52 7.44,6.959 7.98,6.959 L10.235,6.959 C10.775,6.959 11.215,6.52 11.215,5.98 C11.215,5.44 10.775,5 10.235,5 Z" id="Shape"></path>
                    <path d="M0.98,5 C0.44,5 0,5.44 0,5.98 C0,6.52 0.44,6.959 0.98,6.959 L3.235,6.959 C3.775,6.959 4.215,6.52 4.215,5.98 C4.215,5.44 3.775,5 3.235,5 L0.98,5 Z" id="Shape"></path>
                </g>
                <g id="Group-6" transform="translate(122.000000, 39.000000)" fill="#FFC12F">
                    <path d="M7.6,0.993 L6.005,2.588 C5.623,2.97 5.623,3.591 6.005,3.973 C6.373,4.343 7.02,4.345 7.39,3.973 L8.985,2.378 C9.367,1.996 9.367,1.375 8.985,0.993 C8.794,0.802 8.543,0.707 8.292,0.707 C8.042,0.707 7.79,0.802 7.6,0.993 Z" id="Shape"></path>
                    <path d="M2.4,8.964 L3.995,7.369 C4.181,7.184 4.283,6.938 4.283,6.676 C4.283,6.415 4.181,6.169 3.995,5.984 C3.804,5.793 3.553,5.698 3.303,5.698 C3.052,5.698 2.8,5.793 2.61,5.984 L1.015,7.579 C0.633,7.961 0.633,8.582 1.015,8.964 C1.385,9.335 2.03,9.334 2.4,8.964 Z" id="Shape"></path>
                    <path d="M7.6,8.964 C7.968,9.335 8.615,9.335 8.985,8.964 C9.367,8.582 9.367,7.961 8.985,7.579 L7.39,5.984 C7.199,5.793 6.948,5.698 6.697,5.698 C6.447,5.698 6.195,5.793 6.005,5.984 C5.623,6.366 5.623,6.987 6.005,7.369 L7.6,8.964 Z" id="Shape"></path>
                    <path d="M2.609,3.974 C2.991,4.356 3.614,4.354 3.994,3.974 C4.376,3.592 4.376,2.97 3.994,2.588 L2.4,0.993 C2.209,0.802 1.958,0.707 1.708,0.707 C1.457,0.707 1.205,0.802 1.015,0.993 C0.633,1.375 0.633,1.996 1.015,2.378 L2.609,3.974 Z" id="Shape"></path>
                </g>
            </g>
        </g>
    </g>
</svg>