<?xml version="1.0" encoding="UTF-8"?>
<svg width="200px" height="200px" viewBox="0 0 200 200" version="1.1" xmlns="http://www.w3.org/2000/svg" xmlns:xlink="http://www.w3.org/1999/xlink">
    <!-- Generator: sketchtool 51.3 (57544) - http://www.bohemiancoding.com/sketch -->
    <title>89EC42ED-C435-4CA6-8CD4-D7EFE7D0789A</title>
    <desc>Created with sketchtool.</desc>
    <defs></defs>
    <g id="Symbols" stroke="none" stroke-width="1" fill="none" fill-rule="evenodd">
        <g id="Icon/Money">
            <g id="Icon_Money" transform="translate(20.000000, 4.000000)">
                <path d="M67.1781161,6.11718668 L4.79328376,154.114818 C2.64805852,159.204008 5.03461335,165.06866 10.1238032,167.213885 C11.6963353,167.876748 13.4123405,168.126152 15.1085064,167.93836 L159.092114,151.997168 C164.58142,151.389418 168.538703,146.446777 167.930953,140.95747 C167.767708,139.483013 167.27846,138.063345 166.498671,136.801362 L84.8998956,4.74492295 C81.99679,0.0466442756 75.8346505,-1.40863106 71.1363718,1.49447451 C69.3687261,2.58671757 67.9852199,4.20246738 67.1781161,6.11718668 Z" id="Path-7" fill="#FFF6CE" fill-rule="nonzero"></path>
                <circle id="Oval-2-Copy" stroke="#FFF6CE" stroke-width="3" fill="#FFFFFF" fill-rule="nonzero" cx="80" cy="96" r="80"></circle>
                <circle id="Oval-9" fill="#FFC12F" fill-rule="nonzero" cx="38.5" cy="130.5" r="3.5"></circle>
                <circle id="Oval-10" fill="#FFC12F" fill-rule="nonzero" cx="127.5" cy="93.5" r="3.5"></circle>
                <path d="M132.111,93.555 C132.111,91.043 130.067,89 127.555,89 C125.043,89 123,91.044 123,93.555 C123,96.068 125.044,98.111 127.555,98.111 C130.067,98.111 132.111,96.067 132.111,93.555 Z M124.882,93.555 C124.882,92.081 126.081,90.883 127.554,90.883 C129.027,90.883 130.227,92.082 130.227,93.555 C130.227,95.028 129.027,96.228 127.554,96.228 C126.081,96.228 124.882,95.029 124.882,93.555 Z" id="Shape" fill="#111111" fill-rule="nonzero"></path>
                <path d="M43.111,130.555 C43.111,128.043 41.067,126 38.555,126 C36.043,126 34,128.044 34,130.555 C34,133.068 36.044,135.111 38.555,135.111 C41.067,135.111 43.111,133.067 43.111,130.555 Z M35.882,130.555 C35.882,129.081 37.081,127.883 38.554,127.883 C40.027,127.883 41.227,129.082 41.227,130.555 C41.227,132.028 40.027,133.228 38.554,133.228 C37.081,133.228 35.882,132.029 35.882,130.555 Z" id="Shape-Copy-5" fill="#111111" fill-rule="nonzero"></path>
                <path d="M85.8831768,43.6609023 C85.6221768,43.6719023 85.3791768,43.7829023 85.2021768,43.9759023 C85.0251768,44.1689023 84.9331768,44.4179023 84.9441768,44.6799023 C84.9651768,45.2069023 85.3951768,45.6199023 85.9221768,45.6199023 C86.9781768,45.5769023 87.9181768,45.1429023 88.6091768,44.3939023 C89.3011768,43.6449023 89.6591768,42.6739023 89.6181768,41.6589023 C89.5771768,40.6429023 89.1421768,39.7029023 88.3941768,39.0109023 C87.6441768,38.3189023 86.6511768,37.9639023 85.6551768,38.0029023 L85.6541768,38.0029023 C84.6371768,38.0439023 83.6981768,38.4779023 83.0081768,39.2259023 C82.3191768,39.9749023 81.9621768,40.9479023 82.0031768,41.9669023 C82.0261768,42.5099023 82.4831768,42.9419023 83.0231768,42.9049023 C83.2821768,42.8949023 83.5241768,42.7829023 83.7011768,42.5909023 C83.8791768,42.3979023 83.9711768,42.1479023 83.9601768,41.8869023 C83.9391768,41.3909023 84.1131768,40.9179023 84.4491768,40.5539023 C84.7831768,40.1909023 85.2391768,39.9799023 85.7331768,39.9599023 C85.7561768,39.9589023 85.7781768,39.9589023 85.8011768,39.9589023 C86.7941768,39.9589023 87.6201768,40.7439023 87.6601768,41.7379023 C87.6811768,42.2299023 87.5071768,42.7009023 87.1701768,43.0659023 C86.8361768,43.4309023 86.3781768,43.6409023 85.8831768,43.6609023 Z" id="Shape" fill="#FFC12F" fill-rule="nonzero"></path>
                <g id="Group-4" transform="translate(84.000000, 142.000000)" fill="#111111" fill-rule="nonzero">
                    <path d="M5.979,0 C5.439,0 5,0.44 5,0.98 L5,3.235 C5,3.775 5.439,4.215 5.979,4.215 C6.519,4.215 6.959,3.775 6.959,3.235 L6.959,0.98 C6.959,0.44 6.519,0 5.979,0 Z" id="Shape"></path>
                    <path d="M5.979,7 C5.439,7 5,7.439 5,7.979 L5,10.235 C5,10.775 5.439,11.214 5.979,11.214 C6.519,11.214 6.959,10.775 6.959,10.235 L6.959,7.979 C6.959,7.439 6.519,7 5.979,7 Z" id="Shape"></path>
                    <path d="M10.235,5 L7.98,5 C7.44,5 7,5.44 7,5.98 C7,6.52 7.44,6.959 7.98,6.959 L10.235,6.959 C10.775,6.959 11.215,6.52 11.215,5.98 C11.215,5.44 10.775,5 10.235,5 Z" id="Shape"></path>
                    <path d="M0.98,5 C0.44,5 0,5.44 0,5.98 C0,6.52 0.44,6.959 0.98,6.959 L3.235,6.959 C3.775,6.959 4.215,6.52 4.215,5.98 C4.215,5.44 3.775,5 3.235,5 L0.98,5 Z" id="Shape"></path>
                </g>
                <g id="Group-4-Copy" transform="translate(28.000000, 65.000000)" fill="#111111" fill-rule="nonzero">
                    <path d="M5.979,0 C5.439,0 5,0.44 5,0.98 L5,3.235 C5,3.775 5.439,4.215 5.979,4.215 C6.519,4.215 6.959,3.775 6.959,3.235 L6.959,0.98 C6.959,0.44 6.519,0 5.979,0 Z" id="Shape"></path>
                    <path d="M5.979,7 C5.439,7 5,7.439 5,7.979 L5,10.235 C5,10.775 5.439,11.214 5.979,11.214 C6.519,11.214 6.959,10.775 6.959,10.235 L6.959,7.979 C6.959,7.439 6.519,7 5.979,7 Z" id="Shape"></path>
                    <path d="M10.235,5 L7.98,5 C7.44,5 7,5.44 7,5.98 C7,6.52 7.44,6.959 7.98,6.959 L10.235,6.959 C10.775,6.959 11.215,6.52 11.215,5.98 C11.215,5.44 10.775,5 10.235,5 Z" id="Shape"></path>
                    <path d="M0.98,5 C0.44,5 0,5.44 0,5.98 C0,6.52 0.44,6.959 0.98,6.959 L3.235,6.959 C3.775,6.959 4.215,6.52 4.215,5.98 C4.215,5.44 3.775,5 3.235,5 L0.98,5 Z" id="Shape"></path>
                </g>
                <g id="Group-6" transform="translate(113.000000, 55.000000)" fill="#FFC12F" fill-rule="nonzero">
                    <path d="M7.6,0.993 L6.005,2.588 C5.623,2.97 5.623,3.591 6.005,3.973 C6.373,4.343 7.02,4.345 7.39,3.973 L8.985,2.378 C9.367,1.996 9.367,1.375 8.985,0.993 C8.794,0.802 8.543,0.707 8.292,0.707 C8.042,0.707 7.79,0.802 7.6,0.993 Z" id="Shape"></path>
                    <path d="M2.4,8.964 L3.995,7.369 C4.181,7.184 4.283,6.938 4.283,6.676 C4.283,6.415 4.181,6.169 3.995,5.984 C3.804,5.793 3.553,5.698 3.303,5.698 C3.052,5.698 2.8,5.793 2.61,5.984 L1.015,7.579 C0.633,7.961 0.633,8.582 1.015,8.964 C1.385,9.335 2.03,9.334 2.4,8.964 Z" id="Shape"></path>
                    <path d="M7.6,8.964 C7.968,9.335 8.615,9.335 8.985,8.964 C9.367,8.582 9.367,7.961 8.985,7.579 L7.39,5.984 C7.199,5.793 6.948,5.698 6.697,5.698 C6.447,5.698 6.195,5.793 6.005,5.984 C5.623,6.366 5.623,6.987 6.005,7.369 L7.6,8.964 Z" id="Shape"></path>
                    <path d="M2.609,3.974 C2.991,4.356 3.614,4.354 3.994,3.974 C4.376,3.592 4.376,2.97 3.994,2.588 L2.4,0.993 C2.209,0.802 1.958,0.707 1.708,0.707 C1.457,0.707 1.205,0.802 1.015,0.993 C0.633,1.375 0.633,1.996 1.015,2.378 L2.609,3.974 Z" id="Shape"></path>
                </g>
                <g id="Group-8" transform="translate(47.000000, 63.000000)">
                    <polygon id="Path-13" fill-opacity="0.5" fill="#FFC12F" fill-rule="nonzero" points="2.56494141 45.034668 6.35839844 47.5136719 30.4902344 47.5136719 39.2861328 41.0883789 37 36.1298828 37 29.9555664 39.2861328 27.2802734 30.4902344 21.4121094 22.0952148 34.4628906 14.199707 21.4121094 8.2109375 24.2749023 2.56494141 30.9082031 1.34716797 37.3857422"></polygon>
                    <polygon id="Path" fill="#FFC12F" points="31.7094727 64.512207 61.034668 64.512207 64.5629883 60.1708984 64.5629883 52.1547852 57.7939453 44.0439453 52.2402344 41.7319336 46.4995117 51.1044922 39.3569336 41.7319336 32.7290039 44.684082 28.0214844 53.1220703 27.0083008 58.9648438"></polygon>
                    <path d="M63,58.6252279 C63,61.0386438 61.0540426,63 58.6595745,63 L33.3404255,63 C30.9459574,63 29,61.0386438 29,58.6252279 L29,57.4075829 C29,54.1119213 30.0344681,51.056872 31.7995745,48.5632519 C32.566383,47.4768502 33.4634043,46.4998177 34.4761702,45.6467371 C35.8217021,44.5165877 37.3480851,43.6124681 39.026383,43 L39.033617,43 L39.88,44.4947138 L41.3557447,47.0612468 L44.7268085,52.9526066 C44.7919149,53.0692672 44.8714894,53.1786365 44.9655319,53.2807145 C45.0523404,53.36821 45.1608511,53.4557054 45.2765957,53.521327 C45.5080851,53.6525702 45.7540426,53.7181918 46,53.7181918 C46.0651064,53.7181918 46.1229787,53.7109005 46.1880851,53.7036092 C46.2459574,53.6963179 46.3110638,53.6882975 46.3689362,53.6671528 C46.4268085,53.6525702 46.4846809,53.6306963 46.5425532,53.6088225 C46.5859574,53.5942399 46.6365957,53.572366 46.68,53.5432009 C46.6879574,53.5388261 46.6973617,53.5329931 46.706766,53.5286183 C46.7219574,53.5198688 46.7378723,53.5133066 46.7523404,53.5045571 C46.7595745,53.4994532 46.7675319,53.4972658 46.7740426,53.4921619 C46.8246809,53.4557054 46.8753191,53.419249 46.9259574,53.3755013 C46.9621277,53.3463361 46.9982979,53.317171 47.027234,53.2807145 C47.1212766,53.1932191 47.193617,53.0984324 47.2587234,52.9890631 L47.2659574,52.9744805 L52.973617,43.0072913 C58.8187234,45.1436384 63,50.7943857 63,57.4075829 L63,58.6252279 Z M7.36643836,46 C4.95761986,46 3,43.9926024 3,41.5225333 L3,37.7913111 C3,30.955712 7.29293664,25.1275429 13.2604024,23.0007462 L20.6629709,36.1488271 C20.6731592,36.1652445 20.6869863,36.1771844 20.6971747,36.194348 C20.7459332,36.2734499 20.8019692,36.3480744 20.8660103,36.4174751 C20.8871147,36.4406087 20.9053082,36.4652347 20.9271404,36.4861296 C21.0079195,36.563739 21.095976,36.6353785 21.1956764,36.6943318 C21.1971318,36.6958243 21.1993151,36.6958243 21.2007705,36.6965705 C21.2880993,36.7488076 21.3827055,36.7831349 21.4773116,36.8144771 C21.6235873,36.862983 21.772774,36.8950715 21.9219606,36.8950715 L21.9234161,36.8950715 L21.9248716,36.8950715 C22.0740582,36.8950715 22.2232449,36.862983 22.3695205,36.8144771 C22.4648545,36.7831349 22.5587329,36.7488076 22.6467894,36.6965705 C22.6482449,36.6958243 22.6497003,36.6958243 22.6511558,36.6943318 C22.7515839,36.6353785 22.8389127,36.5644853 22.9196918,36.4861296 C22.941524,36.4652347 22.9604452,36.4406087 22.9815497,36.4174751 C23.044863,36.3480744 23.1016267,36.2734499 23.1496575,36.194348 C23.1598459,36.1771844 23.1744007,36.1652445 23.1838613,36.1488271 L30.5871575,23 C30.5878853,23.0007462 30.5878853,23.0007462 30.588613,23.0007462 C32.9755993,23.8440025 35.0933219,25.2917167 36.7744007,27.1573278 C35.442637,29.0154765 34.6566781,31.3064469 34.6566781,33.7839785 C34.6566781,36.4107589 35.5372432,38.813666 37,40.7165893 C34.2127568,41.8583433 31.7675514,43.6866422 29.8608733,46 L7.36643836,46 Z M26,25.0007021 L22,32 L18,25 C18.0006949,25 18.0013899,25 18.0020848,25.0007021 C19.2529534,25.4430291 20.6011119,25.6817452 21.9979152,25.6817452 C23.4016678,25.6817452 24.742877,25.4430291 25.9937457,25.0007021 L26,25.0007021 Z M22,3 C27.5185185,3 32,7.48888889 32,13 C32,15.6222222 30.9851852,18.0222222 29.3185185,19.8 C28.2518519,20.9555556 26.9037037,21.8592593 25.3925926,22.4074074 C24.3333333,22.7925926 23.1925926,23 22,23 C20.8074074,23 19.6740741,22.7925926 18.6148148,22.4074074 C17.0962963,21.8592593 15.7555556,20.9555556 14.6814815,19.8 C13.0148148,18.0222222 12,15.6222222 12,13 C12,7.48888889 16.4888889,3 22,3 Z M49,44 L46,49 L43.2679901,44.4434907 L43,44 C43.1414392,44.0429185 43.2828784,44.0715308 43.4317618,44.1072961 C44.2580645,44.2932761 45.1141439,44.3934192 46,44.3934192 C47.0421836,44.3934192 48.0471464,44.2575107 49,44 Z M39.0690909,30.0072727 C39.5854545,29.12 40.2618182,28.3418182 41.0618182,27.7163636 C42.4218182,26.64 44.1381818,26 46,26 C50.4145455,26 54,29.5927273 54,34 C54,34.9381818 53.84,35.84 53.5345455,36.6763636 L53.5345455,36.6836364 C53.1709091,37.7236364 52.5890909,38.6618182 51.8545455,39.4545455 L51.4836364,39.8254545 C50.0509091,41.1781818 48.1163636,42 46,42 C45.3745455,42 44.7563636,41.9265455 44.1745455,41.7890909 C43.1054545,41.5418182 42.1236364,41.0763636 41.2727273,40.4509091 C41.0109091,40.2545455 40.7563636,40.0509091 40.5236364,39.8254545 C40.3927273,39.7018182 40.2618182,39.5781818 40.1454545,39.4472727 C39.4036364,38.6538182 38.8290909,37.7090909 38.4581818,36.6690909 C38.16,35.8327273 38,34.9309091 38,34 C38,32.5454545 38.3854545,31.1854545 39.0690909,30.0072727 Z M54.472,40.4213333 C55.946,38.5513333 56.8333333,36.19 56.8333333,33.6086667 C56.8333333,27.5366667 51.9126667,22.6086667 45.8333333,22.6086667 C43.2593333,22.6086667 40.8906667,23.496 39.0133333,24.9773333 C37.1653333,23.012 34.8846667,21.4573333 32.3253333,20.4673333 C33.8946667,18.3333333 34.8333333,15.6933333 34.8333333,12.8333333 C34.8333333,5.74933333 29.0913333,0 22,0 C14.916,0 9.16666667,5.74933333 9.16666667,12.8333333 C9.16666667,15.686 10.098,18.326 11.682,20.46 C4.84733333,23.122 0,29.766 0,37.5466667 L0,41.2133333 C0,45.2613333 3.28533333,48.5466667 7.33333333,48.5466667 L27.9766667,48.5466667 C26.5026667,51.1793333 25.6666667,54.2153333 25.6666667,57.442 L25.6666667,58.6666667 C25.6666667,62.7146667 28.952,66 33,66 L58.6666667,66 C62.722,66 66,62.7146667 66,58.6666667 L66,57.442 C66,49.7273333 61.2333333,43.12 54.472,40.4213333 Z" id="Fill-1" fill="#000000"></path>
                </g>
            </g>
        </g>
    </g>
</svg>