<?xml version="1.0" encoding="UTF-8"?>
<svg width="150px" height="100px" viewBox="0 0 150 100" version="1.1" xmlns="http://www.w3.org/2000/svg" xmlns:xlink="http://www.w3.org/1999/xlink">
    <!-- Generator: sketchtool 51.3 (57544) - http://www.bohemiancoding.com/sketch -->
    <title>7ECAE26A-F7B0-41E7-AFCC-A71185014DDF</title>
    <desc>Created with sketchtool.</desc>
    <defs>
        <linearGradient x1="0%" y1="99.6229227%" x2="100%" y2="0%" id="linearGradient-1">
            <stop stop-color="#FF1E62" offset="0%"></stop>
            <stop stop-color="#FFBF2E" offset="100%"></stop>
        </linearGradient>
    </defs>
    <g id="Symbols" stroke="none" stroke-width="1" fill="none" fill-rule="evenodd">
        <g id="Icon/Settings-Copy-2" fill="url(#linearGradient-1)">
            <path d="M0,40.480678 C0,31.4115254 7.1575985,25 17.5,25 C27.4812383,25 34.3433396,30.8467797 34.3433396,38.8528814 C34.3433396,44.8325424 30.4033771,49.3172881 25.1829268,54.5661017 L13.6257036,65.8277966 L13.6257036,66.0271186 L35,66.0271186 L35,74 L0.558161351,74 L0.558161351,67.2562712 L18.4193246,49.8488136 C23.2129456,44.9986441 24.6904315,42.5735593 24.6904315,39.2515254 C24.6904315,35.6637288 21.5712946,32.8067797 17.1716698,32.8067797 C12.5750469,32.8067797 9.19324578,36.0623729 9.19324578,40.480678 L9.19324578,40.6467797 L0,40.6467797 L0,40.480678 Z M64.0737636,74 L64.0737636,65.4511435 L40,65.4511435 L40,56.9022869 C44.2246438,48.9189189 49.488684,40.5031185 59.4132439,26 L73.6965633,26 L73.6965633,57.4012474 L80,57.4012474 L80,65.4511435 L73.6965633,65.4511435 L73.6965633,74 L64.0737636,74 Z M48,56.7401894 L48,57 L63,57 L63,33 L62.8039216,33 C55.9411765,43.0027064 51.8235294,49.4005413 48,56.7401894 Z M92.9769821,79 L84,79 L101.056266,21 L110,21 L92.9769821,79 Z M119.722868,74 L140.182171,34.1829522 L140.182171,33.983368 L116,33.983368 L116,26 L150,26 L150,34.0831601 L130.166667,74 L119.722868,74 Z" id="24/7"></path>
        </g>
    </g>
</svg>