<?xml version="1.0" encoding="UTF-8"?>
<svg width="150px" height="100px" viewBox="0 0 150 100" version="1.1" xmlns="http://www.w3.org/2000/svg" xmlns:xlink="http://www.w3.org/1999/xlink">
    <!-- Generator: sketchtool 51.3 (57544) - http://www.bohemiancoding.com/sketch -->
    <title>08CADD9F-F012-4235-B632-CDE96DA0BF7E</title>
    <desc>Created with sketchtool.</desc>
    <defs>
        <linearGradient x1="0%" y1="99.6229227%" x2="100%" y2="0%" id="linearGradient-1">
            <stop stop-color="#FF1E62" offset="0%"></stop>
            <stop stop-color="#FFBF2E" offset="100%"></stop>
        </linearGradient>
    </defs>
    <g id="Symbols" stroke="none" stroke-width="1" fill="none" fill-rule="evenodd">
        <g id="Icon/Settings-Copy-4" fill="url(#linearGradient-1)" fill-rule="nonzero">
            <path d="M95.6599702,65.7947596 C97.6297043,65.9578846 99.093751,67.6992437 99.093751,69.6771341 L99.093751,70.0156184 L99.093751,80.2109297 C99.093751,81.3161014 98.1884074,82.2499919 97.0832356,82.2499919 C66.7052863,82.2663044 41.9836956,57.5447137 42.0000081,27.1667644 C42.0000081,26.0615926 42.9338986,25.156249 44.0390703,25.156249 L54.2343816,25.156249 L54.5728659,25.156249 C56.5507563,25.156249 58.2921154,26.6202957 58.4552404,28.5900298 C58.8263497,33.0107168 59.9111309,37.2234194 61.5831619,41.1302626 C62.3335368,42.8838562 61.8727087,44.9269965 60.3026308,46.0117777 C57.655928,47.8469337 54.479069,49.7595741 54.479069,49.7595741 C59.1322091,58.1686668 66.0976457,65.0892441 74.5148947,69.7342279 C74.5148947,69.7342279 76.1094414,67.1038376 77.7814724,64.6365722 C77.9364411,64.4041191 78.095488,64.171666 78.2504567,63.9473692 C79.3352378,62.3772913 81.3743001,61.9164632 83.1278936,62.6668381 C87.0306588,64.3388691 91.2433614,65.4236503 95.6599702,65.7947596 Z M86.8593775,17 C98.1027668,17 107.25,24.3161553 107.25,33.312498 C107.25,42.3088406 98.1027668,49.624996 86.8593775,49.624996 C85.0609246,49.624996 83.2624717,49.4333241 81.5048001,49.0499804 L73.5728479,53.4461986 C73.2669886,53.6174798 72.9244261,53.7031205 72.5859418,53.7031205 C72.1618168,53.7031205 71.7376919,53.5685424 71.3828951,53.3075424 C70.7385514,52.8385581 70.4286139,52.0392457 70.5876608,51.2562458 L71.9742231,44.4294654 C68.4140204,41.4524345 66.468755,37.5496693 66.468755,33.312498 C66.468755,24.3161553 75.6159883,17 86.8593775,17 Z" id="Combined-Shape"></path>
        </g>
    </g>
</svg>