<?xml version="1.0" encoding="UTF-8"?>
<svg width="150px" height="100px" viewBox="0 0 150 100" version="1.1" xmlns="http://www.w3.org/2000/svg" xmlns:xlink="http://www.w3.org/1999/xlink">
    <!-- Generator: sketchtool 51.3 (57544) - http://www.bohemiancoding.com/sketch -->
    <title>E4D64B08-7F66-4FC9-97EF-CBDCC53AF599</title>
    <desc>Created with sketchtool.</desc>
    <defs>
        <linearGradient x1="0%" y1="99.6229227%" x2="100%" y2="0%" id="linearGradient-1">
            <stop stop-color="#FF1E62" offset="0%"></stop>
            <stop stop-color="#FFBF2E" offset="100%"></stop>
        </linearGradient>
    </defs>
    <g id="Symbols" stroke="none" stroke-width="1" fill="none" fill-rule="evenodd">
        <g id="Icon/Settings" fill="url(#linearGradient-1)">
            <path d="M63.5686275,12 L66.372549,17.9463415 L71.4705882,20.2731707 L76.8235294,18.204878 L81.1568627,22.3414634 L78.6078431,28.5463415 L80.9019608,33.7170732 L86,36.0439024 L86,42.2487805 L80.1372549,44.8341463 L78.0980392,50.004878 L80.1372549,55.4341463 L75.8039216,59.8292683 L69.9411765,57.502439 L64.8431373,59.5707317 L62.2941176,65 L56.4313725,65 L53.8823529,58.795122 L48.7843137,56.7268293 L43.1764706,58.795122 L39.0980392,54.6585366 L41.3921569,48.4536585 L39.3529412,43.2829268 L34,40.697561 L34,34.7512195 L39.8627451,32.1658537 L41.9019608,26.995122 L39.8627451,21.3073171 L44.1960784,17.1707317 L50.0588235,19.497561 L55.4117647,17.4292683 L57.7058824,12 L63.5686275,12 Z M71.0808081,62 L72.9191919,64.6262626 L75.5454545,65.1515152 L78.1717172,63.8383838 L80.5353535,65.4141414 L80.010101,68.5656566 L81.5858586,70.9292929 L84.2121212,71.4545455 L85,74.3434343 L82.3737374,76.1818182 L81.5858586,78.8080808 L83.1616162,81.4343434 L81.5858586,83.7979798 L78.4343434,83.2727273 L76.0707071,84.5858586 L75.5454545,87.4747475 L72.6565657,88 L70.8181818,85.3737374 L68.1919192,84.8484848 L65.5656566,86.4242424 L63.2020202,84.8484848 L63.7272727,81.6969697 L62.4141414,79.3333333 L59.5252525,78.8080808 L59,75.9191919 L61.6262626,74.0808081 L62.1515152,71.4545455 L60.5757576,68.8282828 L62.1515152,66.4646465 L65.3030303,66.989899 L67.6666667,65.4141414 L68.1919192,62.7878788 L71.0808081,62 Z M70.7654153,72.1080592 C72.7077727,71.6180078 74.65013,72.8431364 74.8929247,74.8033422 C75.378514,76.763548 74.1645407,78.4787281 72.2221833,78.9687796 C70.279826,79.2138053 68.5802633,77.9886767 68.094674,76.2734966 C67.6090846,74.3132908 69.0658526,72.3530849 70.7654153,72.1080592 Z M95.9428571,42 L98.5142857,45.3669065 L102.371429,46.1438849 L105.714286,43.8129496 L109.057143,45.8848921 L108.542857,50.2877698 L110.857143,53.1366906 L114.971429,53.9136691 L116,57.7985612 L112.4,60.647482 L111.885714,64.5323741 L114.2,67.6402878 L112.142857,71.2661871 L107.771429,70.7482014 L104.685714,73.0791367 L103.914286,76.9640288 L100.057143,78 L97.4857143,74.6330935 L93.6285714,74.1151079 L90.2857143,76.4460432 L86.9428571,74.3741007 L87.4571429,69.971223 L85.1428571,66.8633094 L81.0285714,66.0863309 L80,62.2014388 L83.6,59.352518 L84.1142857,55.7266187 L81.8,52.3597122 L83.8571429,48.7338129 L88.2285714,49.2517986 L91.3142857,46.9208633 L92.0857143,43.0359712 L95.9428571,42 Z M97.1712893,53.1904554 C100.094453,52.3750434 103.017617,54.2776714 103.814843,56.9957113 C104.612069,59.9855553 102.751874,62.9753993 99.8287107,63.7908113 C96.9055471,64.6062233 93.9823835,62.9753993 93.185157,59.9855553 C92.3879306,56.9957113 94.2481256,54.0058674 97.1712893,53.1904554 Z M60.5,31 C64.75,31 68,34.7333333 68,39 C68,43.5333333 64.75,47 60.5,47 C56.25,47 53,43.5333333 53,39 C53,34.7333333 56.25,31 60.5,31 Z" id="Shape"></path>
        </g>
    </g>
</svg>