<?xml version="1.0" encoding="UTF-8"?>
<svg width="150px" height="100px" viewBox="0 0 150 100" version="1.1" xmlns="http://www.w3.org/2000/svg" xmlns:xlink="http://www.w3.org/1999/xlink">
    <!-- Generator: sketchtool 51.3 (57544) - http://www.bohemiancoding.com/sketch -->
    <title>EBABF12B-16F8-453A-A9B4-F2EA2FC64AC8</title>
    <desc>Created with sketchtool.</desc>
    <defs>
        <linearGradient x1="0%" y1="99.6229227%" x2="100%" y2="0%" id="linearGradient-1">
            <stop stop-color="#FF1E62" offset="0%"></stop>
            <stop stop-color="#FFBF2E" offset="100%"></stop>
        </linearGradient>
    </defs>
    <g id="Symbols" stroke="none" stroke-width="1" fill="none" fill-rule="evenodd">
        <g id="Icon/Settings-Copy-3" fill="url(#linearGradient-1)">
            <path d="M32.2474977,75 C21.810737,75 14.3030027,68.8874576 14,60.2169492 L23.3930846,60.2169492 C23.9654231,64.2698305 27.6014559,67.060339 32.3148317,67.060339 C37.6342129,67.060339 41.3039126,63.4061017 41.3039126,58.1905085 C41.3039126,52.8752542 37.6342129,49.1545763 32.3821656,49.1545763 C28.7124659,49.1545763 25.5477707,50.8155932 23.8644222,53.5728814 L14.7743403,53.5728814 L17.1646952,26 L48.0709736,26 L48.0709736,33.9728814 L25.1437671,33.9728814 L24.0327571,47.0949153 L24.2347589,47.0949153 C26.2211101,43.8725424 30.0928116,41.8461017 35.0418562,41.8461017 C44.3339399,41.8461017 51,48.5898305 51,57.9247458 C51,68.0901695 43.3912648,75 32.2474977,75 Z M74.0162811,75 C62.1962296,75 55,65.4177719 55,49.933687 C55,34.4827586 62.2613539,25 74.0162811,25 C85.7712082,25 93,34.4496021 93,49.9005305 C93,65.3514589 85.8363325,75 74.0162811,75 Z M74.0162749,68 C79.6148282,68 83,61.6767578 83,50.4316406 C83,39.2890625 79.5822785,33 74.0162749,33 C68.482821,33 65,39.3232422 65,50.4316406 C65,61.6425781 68.4177215,68 74.0162749,68 Z M118.016281,75 C106.19623,75 99,65.4177719 99,49.933687 C99,34.4827586 106.261354,25 118.016281,25 C129.771208,25 137,34.4496021 137,49.9005305 C137,65.3514589 129.836332,75 118.016281,75 Z M118.016275,68 C123.614828,68 127,61.6767578 127,50.4316406 C127,39.2890625 123.582278,33 118.016275,33 C112.482821,33 109,39.3232422 109,50.4316406 C109,61.6425781 112.417722,68 118.016275,68 Z" id="500"></path>
        </g>
    </g>
</svg>