<?xml version="1.0" encoding="UTF-8"?>
<svg width="150px" height="100px" viewBox="0 0 150 100" version="1.1" xmlns="http://www.w3.org/2000/svg" xmlns:xlink="http://www.w3.org/1999/xlink">
    <!-- Generator: sketchtool 51.3 (57544) - http://www.bohemiancoding.com/sketch -->
    <title>CBFD958E-F99A-4567-910C-AE092C7838C9</title>
    <desc>Created with sketchtool.</desc>
    <defs>
        <linearGradient x1="0%" y1="99.6229227%" x2="236.449612%" y2="-12.3076923%" id="linearGradient-1">
            <stop stop-color="#FF1E62" offset="0%"></stop>
            <stop stop-color="#FFBF2E" offset="100%"></stop>
        </linearGradient>
        <linearGradient x1="-52.3023794%" y1="141.767847%" x2="100%" y2="0%" id="linearGradient-2">
            <stop stop-color="#FF1E62" offset="0%"></stop>
            <stop stop-color="#FFBF2E" offset="100%"></stop>
        </linearGradient>
    </defs>
    <g id="Symbols" stroke="none" stroke-width="1" fill="none" fill-rule="evenodd">
        <g id="Icon/Settings-Copy">
            <g id="Group" transform="translate(7.000000, 23.000000)">
                <polygon id="7" fill="url(#linearGradient-1)" points="3.83236434 49 24.8934109 8.35343035 24.8934109 8.14968815 0 8.14968815 0 0 35 0 35 8.25155925 14.5833333 49"></polygon>
                <path d="M53,45 L53,32 L46.1702128,32 L45.6595745,38.9731013 C45.4893617,41.318038 45.0212766,43.3544304 44,44.835443 L44,45 L53,45 Z M41.7148562,55 L36,55 L36,44.6503704 L37.7683706,44.6503704 C39.4504792,43.7377778 40.0974441,41.1866667 40.313099,38.1792593 L41.0678914,27 L59.5710863,27 L59.5710863,44.6503704 L63,44.6503704 L63,55 L57.2635783,55 L57.2635783,49.2340741 L41.7148562,49.2340741 L41.7148562,55 Z M79.8521127,49 L79.8521127,39.9906716 L71.1478873,39.9906716 L71.1478873,49 L65,49 L65,27 L71.1478873,27 L71.1478873,35.4552239 L79.8521127,35.4552239 L79.8521127,27 L86,27 L86,49 L79.8521127,49 Z M101.054945,31 C98.2417582,31 96.2197802,33.0995671 96,36 L106,36 C105.868132,33.034632 103.912088,31 101.054945,31 Z M106.060429,42.7790698 L111.807018,42.7790698 C111.120858,47.0992844 107.003899,50 101.321637,50 C94.245614,50 90,45.6592129 90,38.6028623 C90,31.5670841 94.288499,27 101.08577,27 C107.775828,27 112,31.3407871 112,38.0474061 L112,39.8783542 L96.1539961,39.8783542 L96.1539961,40.2486583 C96.1539961,43.3962433 98.2339181,45.5563506 101.42885,45.5563506 C103.723197,45.5563506 105.481481,44.4660107 106.060429,42.7790698 Z M121.970179,49 L116,49 L116,27 L121.970179,27 L121.970179,40.75 L122.137177,40.75 L131.029821,27 L137,27 L137,49 L131.029821,49 L131.029821,35.0858209 L130.862823,35.0858209 L121.970179,49 Z M119,17 L122.792614,17 C122.835227,19.2765957 124.262784,20.9148936 126.5,20.9148936 C128.715909,20.9148936 130.143466,19.2765957 130.18608,17 L134,17 C134,21.1914894 130.974432,24 126.5,24 C122.004261,24 119,21.1914894 119,17 Z" id="дней" fill="url(#linearGradient-2)"></path>
            </g>
        </g>
    </g>
</svg>