<?xml version="1.0" encoding="UTF-8"?>
<svg width="200px" height="200px" viewBox="0 0 200 200" version="1.1" xmlns="http://www.w3.org/2000/svg" xmlns:xlink="http://www.w3.org/1999/xlink">
    <!-- Generator: sketchtool 51.3 (57544) - http://www.bohemiancoding.com/sketch -->
    <title>DB53A40A-B550-4E9A-B2D1-D30F31C2EE0B</title>
    <desc>Created with sketchtool.</desc>
    <defs></defs>
    <g id="Symbols" stroke="none" stroke-width="1" fill="none" fill-rule="evenodd">
        <g id="Icon/Stats" fill-rule="nonzero">
            <g id="Icon_Stats" transform="translate(9.000000, -1.000000)">
                <path d="M13.6790692,137.430447 L129.580156,15.2910525 C133.381749,11.2848407 139.711226,11.1189646 143.717438,14.9205579 C145.389874,16.507574 146.462552,18.6237405 146.753887,20.9108319 L164.377347,159.261567 C165.075222,164.740145 161.199696,169.747149 155.721118,170.445024 C154.90162,170.549414 154.072344,170.551852 153.252245,170.452283 L19.7276986,154.240943 C14.2451116,153.575297 10.3402094,148.591169 11.0058555,143.108582 C11.2645254,140.97805 12.2017705,138.987261 13.6790692,137.430447 Z" id="Path-6" fill="#FFF6CE"></path>
                <circle id="Oval-2" stroke="#FFF6CE" stroke-width="3" fill="#FFFFFF" cx="91" cy="101" r="80"></circle>
                <circle id="Oval-4" fill-opacity="0.5" fill="#FFC12F" cx="62" cy="115" r="4"></circle>
                <circle id="Oval-4-Copy" fill-opacity="0.5" fill="#FFC12F" cx="78" cy="99" r="4"></circle>
                <circle id="Oval-4-Copy-2" fill-opacity="0.5" fill="#FFC12F" cx="96" cy="111" r="4"></circle>
                <polygon id="Path-2" fill="#FFC12F" points="78.3955078 131.102539 75.293457 141.680176 76.8444824 144.376465 84.3994141 144.376465 94.5786133 144.376465 94.5786133 142.368164 92.2758789 131.102539"></polygon>
                <circle id="Oval-3" fill="#FFC12F" cx="121" cy="105" r="12"></circle>
                <g id="noun_stats_311721" transform="translate(25.000000, 41.000000)">
                    <g id="Group" transform="translate(23.000000, 37.000000)" fill="#111111">
                        <path d="M72.7,42.5 C72.1,42.5 71.7,42.9 71.7,43.5 L71.7,46.9 C71.7,47.4 71.6,49.1 70.2,50.5 C69.2,51.5 68,52 66.6,52 L7,52 C4.2,52 2,49.7 2,47 L2,7.1 C2,4.3 4.3,2.1 7,2.1 L66.7,2.1 C69.5,2.1 71.7,4.4 71.7,7.1 L71.7,9.6 C71.7,10.2 72.1,10.6 72.7,10.6 C73.3,10.6 73.7,10.2 73.7,9.6 L73.7,7.1 C73.7,3.2 70.5,0.1 66.7,0.1 L7,0.1 C3.1,0.1 0,3.3 0,7.1 L0,46.9 C0,50.8 3.2,53.9 7,53.9 L29,53.9 L26.4,63.8 C26.2,64.7 26.4,65.6 26.9,66.3 C27.5,67.1 28.6,67.6 29.6,67.6 L44.7,67.6 C45.8,67.6 46.8,67.1 47.4,66.3 C48,65.6 48.2,64.6 47.9,63.8 L45.3,53.9 L66.5,53.9 C68.4,53.9 70.1,53.2 71.5,51.8 C73.4,49.9 73.6,47.7 73.6,46.8 L73.6,43.4 C73.7,42.9 73.2,42.5 72.7,42.5 Z M45.9,65.1 C45.6,65.4 45.2,65.6 44.7,65.6 L29.6,65.6 C29.1,65.6 28.7,65.4 28.4,65.1 C28.3,64.9 28.1,64.7 28.2,64.3 L31,54 L43.4,54 L46,64.3 C46.1,64.6 46,64.9 45.9,65.1 Z" id="Shape"></path>
                        <path d="M72.7,13.1 C65.1,13.1 58.9,19.3 58.9,26.9 C58.9,28 59,29 59.3,30 L53.5,31.7 C52.9,29.4 50.8,27.6 48.3,27.6 C46.7,27.6 45.3,28.3 44.3,29.4 L35.2,23.3 C35.2,23.3 35.1,23.3 35.1,23.3 C35.5,22.5 35.8,21.6 35.8,20.7 C35.8,17.7 33.4,15.3 30.4,15.3 C27.4,15.3 25,17.7 25,20.7 C25,21.9 25.4,22.9 26,23.8 L17.5,32.3 C17.4,32.4 17.3,32.5 17.3,32.6 C16.4,31.8 15.2,31.3 13.9,31.3 C10.9,31.3 8.5,33.7 8.5,36.7 C8.5,39.7 10.9,42.1 13.9,42.1 C16.9,42.1 19.3,39.7 19.3,36.7 C19.3,35.7 19,34.8 18.5,34 C18.7,34 18.9,33.9 19,33.7 L27.5,25.2 C28.3,25.7 29.3,26.1 30.4,26.1 C31.7,26.1 32.9,25.6 33.8,24.8 C33.9,24.9 33.9,25 34,25 L43.1,31.1 C42.9,31.7 42.7,32.3 42.7,33 C42.7,36 45.1,38.4 48.1,38.4 C50.8,38.4 53,36.4 53.4,33.8 L59.7,32 C61.7,37.2 66.7,40.8 72.6,40.8 C80.2,40.8 86.4,34.6 86.4,27 C86.5,19.3 80.3,13.1 72.7,13.1 Z M14,40.1 C12.1,40.1 10.6,38.6 10.6,36.7 C10.6,34.8 12.1,33.3 14,33.3 C15.9,33.3 17.4,34.8 17.4,36.7 C17.3,38.6 15.8,40.1 14,40.1 Z M30.4,24 C29.6,24 29,23.7 28.4,23.3 C28.4,23.2 28.3,23.1 28.2,23 C28.1,22.9 28,22.8 27.8,22.8 C27.3,22.2 27,21.5 27,20.6 C27,18.7 28.5,17.2 30.4,17.2 C32.3,17.2 33.8,18.7 33.8,20.6 C33.8,22.5 32.3,24 30.4,24 Z M48.2,36.4 C46.3,36.4 44.8,34.9 44.8,33 C44.8,31.1 46.3,29.6 48.2,29.6 C50.1,29.6 51.6,31.1 51.6,33 C51.6,34.9 50.1,36.4 48.2,36.4 Z M72.7,38.8 C66.2,38.8 60.9,33.5 60.9,27 C60.9,20.5 66.2,15.2 72.7,15.2 C79.2,15.2 84.5,20.5 84.5,27 C84.5,33.5 79.2,38.8 72.7,38.8 Z" id="Shape"></path>
                        <path d="M77.3,21.9 L71.3,30 L68,26.8 C67.6,26.4 67,26.4 66.6,26.8 C66.2,27.2 66.2,27.8 66.6,28.2 L70.8,32.2 C70.8,32.2 70.8,32.2 70.9,32.2 C70.9,32.2 70.9,32.2 70.9,32.2 C70.9,32.2 71,32.3 71.1,32.3 C71.1,32.3 71.2,32.3 71.2,32.4 C71.3,32.4 71.4,32.5 71.5,32.5 C71.5,32.5 71.5,32.5 71.5,32.5 C71.5,32.5 71.5,32.5 71.5,32.5 C71.6,32.5 71.8,32.5 71.9,32.4 C71.9,32.4 72,32.3 72,32.3 C72.1,32.3 72.1,32.2 72.2,32.2 C72.2,32.2 72.2,32.2 72.2,32.1 C72.2,32.1 72.2,32.1 72.2,32.1 L78.9,23.1 C79.2,22.7 79.1,22 78.7,21.7 C78.3,21.3 77.6,21.4 77.3,21.9 Z" id="Shape"></path>
                    </g>
                    <g id="Group-3">
                        <path d="M127.111,41.555 C127.111,39.043 125.067,37 122.555,37 C120.043,37 118,39.044 118,41.555 C118,44.068 120.044,46.111 122.555,46.111 C125.067,46.111 127.111,44.067 127.111,41.555 Z M119.882,41.555 C119.882,40.081 121.081,38.883 122.554,38.883 C124.027,38.883 125.227,40.082 125.227,41.555 C125.227,43.028 124.027,44.228 122.554,44.228 C121.081,44.228 119.882,43.029 119.882,41.555 Z" id="Shape" fill="#111111"></path>
                        <path d="M9.111,60.555 C9.111,58.043 7.067,56 4.555,56 C2.043,56 0,58.044 0,60.555 C0,63.068 2.044,65.111 4.555,65.111 C7.067,65.111 9.111,63.067 9.111,60.555 Z M1.882,60.555 C1.882,59.081 3.081,57.883 4.554,57.883 C6.027,57.883 7.227,59.082 7.227,60.555 C7.227,62.028 6.027,63.228 4.554,63.228 C3.081,63.228 1.882,62.029 1.882,60.555 Z" id="Shape-Copy-5" fill="#111111"></path>
                        <path d="M92.8831768,19.6609023 C92.6221768,19.6719023 92.3791768,19.7829023 92.2021768,19.9759023 C92.0251768,20.1689023 91.9331768,20.4179023 91.9441768,20.6799023 C91.9651768,21.2069023 92.3951768,21.6199023 92.9221768,21.6199023 C93.9781768,21.5769023 94.9181768,21.1429023 95.6091768,20.3939023 C96.3011768,19.6449023 96.6591768,18.6739023 96.6181768,17.6589023 C96.5771768,16.6429023 96.1421768,15.7029023 95.3941768,15.0109023 C94.6441768,14.3189023 93.6511768,13.9639023 92.6551768,14.0029023 L92.6541768,14.0029023 C91.6371768,14.0439023 90.6981768,14.4779023 90.0081768,15.2259023 C89.3191768,15.9749023 88.9621768,16.9479023 89.0031768,17.9669023 C89.0261768,18.5099023 89.4831768,18.9419023 90.0231768,18.9049023 C90.2821768,18.8949023 90.5241768,18.7829023 90.7011768,18.5909023 C90.8791768,18.3979023 90.9711768,18.1479023 90.9601768,17.8869023 C90.9391768,17.3909023 91.1131768,16.9179023 91.4491768,16.5539023 C91.7831768,16.1909023 92.2391768,15.9799023 92.7331768,15.9599023 C92.7561768,15.9589023 92.7781768,15.9589023 92.8011768,15.9589023 C93.7941768,15.9589023 94.6201768,16.7439023 94.6601768,17.7379023 C94.6811768,18.2299023 94.5071768,18.7009023 94.1701768,19.0659023 C93.8361768,19.4309023 93.3781768,19.6409023 92.8831768,19.6609023 Z" id="Shape" fill="#FFC12F"></path>
                        <g id="Group-4" transform="translate(90.000000, 103.000000)" fill="#111111">
                            <path d="M5.979,0 C5.439,0 5,0.44 5,0.98 L5,3.235 C5,3.775 5.439,4.215 5.979,4.215 C6.519,4.215 6.959,3.775 6.959,3.235 L6.959,0.98 C6.959,0.44 6.519,0 5.979,0 Z" id="Shape"></path>
                            <path d="M5.979,7 C5.439,7 5,7.439 5,7.979 L5,10.235 C5,10.775 5.439,11.214 5.979,11.214 C6.519,11.214 6.959,10.775 6.959,10.235 L6.959,7.979 C6.959,7.439 6.519,7 5.979,7 Z" id="Shape"></path>
                            <path d="M10.235,5 L7.98,5 C7.44,5 7,5.44 7,5.98 C7,6.52 7.44,6.959 7.98,6.959 L10.235,6.959 C10.775,6.959 11.215,6.52 11.215,5.98 C11.215,5.44 10.775,5 10.235,5 Z" id="Shape"></path>
                            <path d="M0.98,5 C0.44,5 0,5.44 0,5.98 C0,6.52 0.44,6.959 0.98,6.959 L3.235,6.959 C3.775,6.959 4.215,6.52 4.215,5.98 C4.215,5.44 3.775,5 3.235,5 L0.98,5 Z" id="Shape"></path>
                        </g>
                        <g id="Group-5" transform="translate(66.000000, 0.000000)" fill="#111111">
                            <path d="M5.979,0 C5.439,0 5,0.44 5,0.98 L5,3.235 C5,3.775 5.439,4.215 5.979,4.215 C6.519,4.215 6.959,3.775 6.959,3.235 L6.959,0.98 C6.959,0.44 6.519,0 5.979,0 Z" id="Shape-Copy"></path>
                            <path d="M5.979,7 C5.439,7 5,7.439 5,7.979 L5,10.235 C5,10.775 5.439,11.214 5.979,11.214 C6.519,11.214 6.959,10.775 6.959,10.235 L6.959,7.979 C6.959,7.439 6.519,7 5.979,7 Z" id="Shape-Copy-2"></path>
                            <path d="M10.235,5 L7.98,5 C7.44,5 7,5.44 7,5.98 C7,6.52 7.44,6.959 7.98,6.959 L10.235,6.959 C10.775,6.959 11.215,6.52 11.215,5.98 C11.215,5.44 10.775,5 10.235,5 Z" id="Shape-Copy-3"></path>
                            <path d="M0.98,5 C0.44,5 0,5.44 0,5.98 C0,6.52 0.44,6.959 0.98,6.959 L3.235,6.959 C3.775,6.959 4.215,6.52 4.215,5.98 C4.215,5.44 3.775,5 3.235,5 L0.98,5 Z" id="Shape-Copy-4"></path>
                        </g>
                        <g id="Group-6" transform="translate(27.000000, 16.000000)" fill="#FFC12F">
                            <path d="M7.6,0.993 L6.005,2.588 C5.623,2.97 5.623,3.591 6.005,3.973 C6.373,4.343 7.02,4.345 7.39,3.973 L8.985,2.378 C9.367,1.996 9.367,1.375 8.985,0.993 C8.794,0.802 8.543,0.707 8.292,0.707 C8.042,0.707 7.79,0.802 7.6,0.993 Z" id="Shape"></path>
                            <path d="M2.4,8.964 L3.995,7.369 C4.181,7.184 4.283,6.938 4.283,6.676 C4.283,6.415 4.181,6.169 3.995,5.984 C3.804,5.793 3.553,5.698 3.303,5.698 C3.052,5.698 2.8,5.793 2.61,5.984 L1.015,7.579 C0.633,7.961 0.633,8.582 1.015,8.964 C1.385,9.335 2.03,9.334 2.4,8.964 Z" id="Shape"></path>
                            <path d="M7.6,8.964 C7.968,9.335 8.615,9.335 8.985,8.964 C9.367,8.582 9.367,7.961 8.985,7.579 L7.39,5.984 C7.199,5.793 6.948,5.698 6.697,5.698 C6.447,5.698 6.195,5.793 6.005,5.984 C5.623,6.366 5.623,6.987 6.005,7.369 L7.6,8.964 Z" id="Shape"></path>
                            <path d="M2.609,3.974 C2.991,4.356 3.614,4.354 3.994,3.974 C4.376,3.592 4.376,2.97 3.994,2.588 L2.4,0.993 C2.209,0.802 1.958,0.707 1.708,0.707 C1.457,0.707 1.205,0.802 1.015,0.993 C0.633,1.375 0.633,1.996 1.015,2.378 L2.609,3.974 Z" id="Shape"></path>
                        </g>
                    </g>
                </g>
            </g>
        </g>
    </g>
</svg>