<?xml version="1.0" encoding="UTF-8"?>
<svg width="200px" height="200px" viewBox="0 0 200 200" version="1.1" xmlns="http://www.w3.org/2000/svg" xmlns:xlink="http://www.w3.org/1999/xlink">
    <!-- Generator: sketchtool 51.3 (57544) - http://www.bohemiancoding.com/sketch -->
    <title>67A4099F-CEE9-4B8C-BF6B-FAC31C0EA633</title>
    <desc>Created with sketchtool.</desc>
    <defs></defs>
    <g id="Symbols" stroke="none" stroke-width="1" fill="none" fill-rule="evenodd">
        <g id="Icon/Stats" fill-rule="nonzero">
            <g id="Icon_Stats" transform="translate(4.000000, 20.000000)">
                <path d="M8.0836131,34.6108379 L153.896083,2.72710056 C159.291451,1.54733518 164.62165,4.9647565 165.801415,10.3601247 C166.00126,11.2740657 166.071866,12.211529 166.011167,13.145093 L156.762292,155.395191 C156.403962,160.906402 151.645759,165.083637 146.134548,164.725307 C144.073361,164.591292 142.104245,163.822296 140.497751,162.523979 L3.93415627,52.1576183 C-0.361294755,48.6861712 -1.02928191,42.3898563 2.4421652,38.0944052 C3.87177534,36.3254541 5.86169444,35.0966885 8.0836131,34.6108379 Z" id="Path-6" fill="#FFF6CE"></path>
                <circle id="Oval-2" stroke="#FFF6CE" stroke-width="3" fill="#FFFFFF" cx="96" cy="80" r="80"></circle>
                <g id="noun_stats_311721" transform="translate(36.000000, 24.000000)">
                    <g id="Group-3">
                        <path d="M99.111,5.555 C99.111,3.043 97.067,1 94.555,1 C92.043,1 90,3.044 90,5.555 C90,8.068 92.044,10.111 94.555,10.111 C97.067,10.111 99.111,8.067 99.111,5.555 Z M91.882,5.555 C91.882,4.081 93.081,2.883 94.554,2.883 C96.027,2.883 97.227,4.082 97.227,5.555 C97.227,7.028 96.027,8.228 94.554,8.228 C93.081,8.228 91.882,7.029 91.882,5.555 Z" id="Shape" fill="#111111"></path>
                        <path d="M9.111,46.555 C9.111,44.043 7.067,42 4.555,42 C2.043,42 0,44.044 0,46.555 C0,49.068 2.044,51.111 4.555,51.111 C7.067,51.111 9.111,49.067 9.111,46.555 Z M1.882,46.555 C1.882,45.081 3.081,43.883 4.554,43.883 C6.027,43.883 7.227,45.082 7.227,46.555 C7.227,48.028 6.027,49.228 4.554,49.228 C3.081,49.228 1.882,48.029 1.882,46.555 Z" id="Shape-Copy-5" fill="#111111"></path>
                        <path d="M109.883177,56.6609023 C109.622177,56.6719023 109.379177,56.7829023 109.202177,56.9759023 C109.025177,57.1689023 108.933177,57.4179023 108.944177,57.6799023 C108.965177,58.2069023 109.395177,58.6199023 109.922177,58.6199023 C110.978177,58.5769023 111.918177,58.1429023 112.609177,57.3939023 C113.301177,56.6449023 113.659177,55.6739023 113.618177,54.6589023 C113.577177,53.6429023 113.142177,52.7029023 112.394177,52.0109023 C111.644177,51.3189023 110.651177,50.9639023 109.655177,51.0029023 L109.654177,51.0029023 C108.637177,51.0439023 107.698177,51.4779023 107.008177,52.2259023 C106.319177,52.9749023 105.962177,53.9479023 106.003177,54.9669023 C106.026177,55.5099023 106.483177,55.9419023 107.023177,55.9049023 C107.282177,55.8949023 107.524177,55.7829023 107.701177,55.5909023 C107.879177,55.3979023 107.971177,55.1479023 107.960177,54.8869023 C107.939177,54.3909023 108.113177,53.9179023 108.449177,53.5539023 C108.783177,53.1909023 109.239177,52.9799023 109.733177,52.9599023 C109.756177,52.9589023 109.778177,52.9589023 109.801177,52.9589023 C110.794177,52.9589023 111.620177,53.7439023 111.660177,54.7379023 C111.681177,55.2299023 111.507177,55.7009023 111.170177,56.0659023 C110.836177,56.4309023 110.378177,56.6409023 109.883177,56.6609023 Z" id="Shape" fill="#FFC12F"></path>
                        <g id="Group-4" transform="translate(83.000000, 104.000000)" fill="#111111">
                            <path d="M5.979,0 C5.439,0 5,0.44 5,0.98 L5,3.235 C5,3.775 5.439,4.215 5.979,4.215 C6.519,4.215 6.959,3.775 6.959,3.235 L6.959,0.98 C6.959,0.44 6.519,0 5.979,0 Z" id="Shape"></path>
                            <path d="M5.979,7 C5.439,7 5,7.439 5,7.979 L5,10.235 C5,10.775 5.439,11.214 5.979,11.214 C6.519,11.214 6.959,10.775 6.959,10.235 L6.959,7.979 C6.959,7.439 6.519,7 5.979,7 Z" id="Shape"></path>
                            <path d="M10.235,5 L7.98,5 C7.44,5 7,5.44 7,5.98 C7,6.52 7.44,6.959 7.98,6.959 L10.235,6.959 C10.775,6.959 11.215,6.52 11.215,5.98 C11.215,5.44 10.775,5 10.235,5 Z" id="Shape"></path>
                            <path d="M0.98,5 C0.44,5 0,5.44 0,5.98 C0,6.52 0.44,6.959 0.98,6.959 L3.235,6.959 C3.775,6.959 4.215,6.52 4.215,5.98 C4.215,5.44 3.775,5 3.235,5 L0.98,5 Z" id="Shape"></path>
                        </g>
                        <g id="Group-5" transform="translate(14.000000, 87.000000)" fill="#111111">
                            <path d="M5.979,0 C5.439,0 5,0.44 5,0.98 L5,3.235 C5,3.775 5.439,4.215 5.979,4.215 C6.519,4.215 6.959,3.775 6.959,3.235 L6.959,0.98 C6.959,0.44 6.519,0 5.979,0 Z" id="Shape-Copy"></path>
                            <path d="M5.979,7 C5.439,7 5,7.439 5,7.979 L5,10.235 C5,10.775 5.439,11.214 5.979,11.214 C6.519,11.214 6.959,10.775 6.959,10.235 L6.959,7.979 C6.959,7.439 6.519,7 5.979,7 Z" id="Shape-Copy-2"></path>
                            <path d="M10.235,5 L7.98,5 C7.44,5 7,5.44 7,5.98 C7,6.52 7.44,6.959 7.98,6.959 L10.235,6.959 C10.775,6.959 11.215,6.52 11.215,5.98 C11.215,5.44 10.775,5 10.235,5 Z" id="Shape-Copy-3"></path>
                            <path d="M0.98,5 C0.44,5 0,5.44 0,5.98 C0,6.52 0.44,6.959 0.98,6.959 L3.235,6.959 C3.775,6.959 4.215,6.52 4.215,5.98 C4.215,5.44 3.775,5 3.235,5 L0.98,5 Z" id="Shape-Copy-4"></path>
                        </g>
                        <g id="Group-6" transform="translate(38.000000, 0.000000)" fill="#FFC12F">
                            <path d="M7.6,0.993 L6.005,2.588 C5.623,2.97 5.623,3.591 6.005,3.973 C6.373,4.343 7.02,4.345 7.39,3.973 L8.985,2.378 C9.367,1.996 9.367,1.375 8.985,0.993 C8.794,0.802 8.543,0.707 8.292,0.707 C8.042,0.707 7.79,0.802 7.6,0.993 Z" id="Shape"></path>
                            <path d="M2.4,8.964 L3.995,7.369 C4.181,7.184 4.283,6.938 4.283,6.676 C4.283,6.415 4.181,6.169 3.995,5.984 C3.804,5.793 3.553,5.698 3.303,5.698 C3.052,5.698 2.8,5.793 2.61,5.984 L1.015,7.579 C0.633,7.961 0.633,8.582 1.015,8.964 C1.385,9.335 2.03,9.334 2.4,8.964 Z" id="Shape"></path>
                            <path d="M7.6,8.964 C7.968,9.335 8.615,9.335 8.985,8.964 C9.367,8.582 9.367,7.961 8.985,7.579 L7.39,5.984 C7.199,5.793 6.948,5.698 6.697,5.698 C6.447,5.698 6.195,5.793 6.005,5.984 C5.623,6.366 5.623,6.987 6.005,7.369 L7.6,8.964 Z" id="Shape"></path>
                            <path d="M2.609,3.974 C2.991,4.356 3.614,4.354 3.994,3.974 C4.376,3.592 4.376,2.97 3.994,2.588 L2.4,0.993 C2.209,0.802 1.958,0.707 1.708,0.707 C1.457,0.707 1.205,0.802 1.015,0.993 C0.633,1.375 0.633,1.996 1.015,2.378 L2.609,3.974 Z" id="Shape"></path>
                        </g>
                    </g>
                </g>
                <g id="Group" transform="translate(71.000000, 45.000000)">
                    <g id="Group-8" transform="translate(2.000000, 2.000000)" fill="#FFC12F">
                        <path d="M7.59326172,58.0537109 C8.19189453,58.0537109 18.3930664,58.0537109 38.1967773,58.0537109 L38.1967773,53.7382812 L25.7919922,48.1308594 L22.8950195,46.8745117 L9.25927734,52.4641113 L7.59326172,54.7299805 C6.99462891,56.9458008 6.99462891,58.0537109 7.59326172,58.0537109 Z" id="Path-10"></path>
                        <polygon id="Path-11" points="8.40234375 16.512207 11.9833984 21.8999023 20.6357422 29.6767578 23.09375 31.3461914 27.9018555 27.3110352 34.2070312 20.9438477 37.8691406 15.4848633 37.8691406 11.4731445 8.40234375 11.4731445"></polygon>
                    </g>
                    <path d="M24.783,34.42 C25.005,34.42 25.225,34.347 25.408,34.2 C26.996,32.93 40.92,21.635 40.92,16.558 L40.92,13.582 C40.933,13.518 40.94,13.45 40.94,13.382 C40.94,12.829 40.493,12.382 39.94,12.382 L39.93,12.382 C39.928,12.382 39.924,12.382 39.92,12.382 L10.077,12.382 C9.524,12.382 9.077,12.829 9.077,13.382 L9.077,16.558 C9.077,22.525 22.631,33.037 24.177,34.215 C24.356,34.352 24.569,34.42 24.783,34.42 Z M11.077,16.558 L11.077,14.382 L38.92,14.382 L38.92,16.558 C38.92,19.553 30.489,27.487 24.77,32.146 C20.435,28.748 11.077,20.578 11.077,16.558 Z" id="Shape" fill="#000000"></path>
                    <path d="M25.186,47.96 C24.98,47.894 24.756,47.896 24.55,47.967 C13.962,51.642 8.593,54.519 8.593,56.517 L8.593,60.073 C8.593,60.626 9.04,61.073 9.593,61.073 L40.405,61.073 C40.958,61.073 41.405,60.626 41.405,60.073 L41.405,56.517 C41.404,53.781 32.585,50.354 25.186,47.96 Z M39.404,59.072 L10.593,59.072 L10.593,56.605 C11.307,55.337 18.457,52.219 24.889,49.966 C31.581,52.154 38.935,55.301 39.405,56.516 L39.405,59.072 L39.404,59.072 Z" id="Shape" fill="#000000"></path>
                    <path d="M46.045,62.428 L44.026,62.428 L44.026,53.398 C44.026,47.184 36.499,40.7 30.181,36.352 C29.734,36.045 29.631,35.522 29.624,35.133 C29.617,34.826 29.679,34.258 30.167,33.895 C39.492,26.937 44.025,21.323 44.025,16.731 L44.025,7.572 L46.044,7.572 C48.123,7.572 49.752,6.007 49.752,4.009 C49.752,2.009 48.123,0.442 46.044,0.442 L3.952,0.442 C1.874,0.442 0.247,2.009 0.247,4.009 C0.247,6.007 1.874,7.572 3.952,7.572 L5.971,7.572 L5.971,16.731 C5.971,21.395 10.662,27.166 19.912,33.881 C20.343,34.195 20.436,34.713 20.439,35.093 C20.442,35.396 20.376,35.957 19.9,36.314 C16.455,38.91 5.97,46.81 5.97,53.398 L5.97,62.428 L3.951,62.428 C1.873,62.428 0.246,63.994 0.246,65.993 C0.246,67.993 1.873,69.559 3.951,69.559 L46.044,69.559 C48.123,69.559 49.752,67.993 49.752,65.993 C49.753,63.994 48.124,62.428 46.045,62.428 Z M2.247,4.008 C2.247,3.114 2.98,2.441 3.952,2.441 L46.045,2.441 C47.019,2.441 47.753,3.115 47.753,4.008 C47.753,4.9 47.019,5.571 46.045,5.571 L43.026,5.571 L6.971,5.571 L3.952,5.571 C2.98,5.571 2.247,4.899 2.247,4.008 Z M7.971,53.397 C7.971,49.687 12.39,44.477 21.103,37.912 C21.962,37.266 22.45,36.232 22.44,35.076 C22.431,33.891 21.953,32.893 21.09,32.264 C10.247,24.393 7.971,19.472 7.971,16.73 L7.971,7.571 L42.027,7.571 L42.027,16.73 C42.027,19.385 39.762,24.24 28.974,32.291 C28.091,32.947 27.6,33.999 27.625,35.173 C27.647,36.383 28.154,37.388 29.05,38.001 C37.418,43.759 42.027,49.228 42.027,53.397 L42.027,62.427 L7.971,62.427 L7.971,53.397 Z M46.045,67.56 L3.952,67.56 C2.98,67.56 2.247,66.886 2.247,65.994 C2.247,65.102 2.98,64.429 3.952,64.429 L6.971,64.429 L43.027,64.429 L46.046,64.429 C47.02,64.429 47.754,65.102 47.754,65.994 C47.754,66.886 47.019,67.56 46.045,67.56 Z" id="Shape" fill="#000000"></path>
                </g>
            </g>
        </g>
    </g>
</svg>